<svg xmlns="http://www.w3.org/2000/svg" xmlns:xlink="http://www.w3.org/1999/xlink" width="461.908" height="321.695" viewBox="0 0 461.908 321.695">
  <defs>
    <linearGradient id="linear-gradient" x1="0.5" y1="1" x2="0.5" gradientUnits="objectBoundingBox">
      <stop offset="0" stop-color="gray" stop-opacity="0.251"/>
      <stop offset="0.54" stop-color="gray" stop-opacity="0.122"/>
      <stop offset="1" stop-color="gray" stop-opacity="0.102"/>
    </linearGradient>
    <linearGradient id="linear-gradient-2" x1="0.495" y1="1.014" x2="0.495" y2="0" xlink:href="#linear-gradient"/>
    <linearGradient id="linear-gradient-3" x1="0.5" y1="1" x2="0.5" y2="0" xlink:href="#linear-gradient"/>
    <linearGradient id="linear-gradient-4" x1="0.5" y1="1" x2="0.5" y2="0" xlink:href="#linear-gradient"/>
  </defs>
  <g id="undraw_celebration_0jvk" transform="translate(0.02 -0.02)">
    <circle id="楕円形_9" data-name="楕円形 9" cx="22.609" cy="22.609" r="22.609" transform="translate(23.644 9.513)" fill="#f9a826"/>
    <path id="パス_70" data-name="パス 70" d="M185.359,197.386c9.493,21.441-2.616,46.132-16.87,64.723-4.771,6.234-10.037,12.771-10.7,20.59-.8,9.566,5.68,18.358,13.364,24.106a56.271,56.271,0,0,0,49.837,8.428c14.414-4.566,26.533-14.881,41.074-19.039,24.316-6.964,50.09,4.581,70.914,18.966,14.74,10.169,30.526,22.56,48.3,20.381,12.5-1.532,23.114-10.31,30.317-20.644,3.477-4.99,6.5-10.582,11.564-13.947a28.949,28.949,0,0,1,10.081-3.822c32.286-6.9,66.552,9.94,98.41,1.279,21.519-5.836,38.676-22.857,49.346-42.44s15.65-41.7,19.8-63.6c2.947-15.562,5.393-32.374-1.381-46.686-7.168-15.153-23.761-24.34-40.437-26.061s-33.4,3.03-48.762,9.731c-19.195,8.394-38.01,20.143-58.96,20.182-14.268.029-27.875-5.447-41.516-9.624-22.808-6.979-46.525-10.446-70.16-13.646-22.628-3.064-45.48-5.914-68.244-4.1-16.107,1.279-30.331,7.436-45.961,10.285-10.188,1.858-20.425.486-30.424,3.6-12.313,3.852-24.977,12.775-25.658,26.83C168.644,176.246,180.325,186.011,185.359,197.386Z" transform="translate(-141.869 -119.24)" fill="#f9a826" opacity="0.1"/>
    <path id="パス_71" data-name="パス 71" d="M581.42,283.113c-2.077-5.413-7.431-18.135-10.957-15.611-4.455,3.19,4.455,17.284,4.455,17.284.253,2.587-4.756,7.971-7.441,10.655v-.336a1.168,1.168,0,0,1-.117.292l-.224-.122a1.458,1.458,0,0,1-.316.579,5.688,5.688,0,0,0-.024-.579c-.516,2.184-9.512,4.951-9.512,4.951h-.661c-2.5,0-9.006-.564-12.022-5.388a26.679,26.679,0,0,0-5.9-6.881,5.024,5.024,0,0,0-2.8-1.06,35.98,35.98,0,0,1-16.423-5.651l-.248-.17-.053.156c-.316-.452-.622-.934-.909-1.43h0l-.146-.267a12.216,12.216,0,0,0,6.735-10.864v-.253a8.321,8.321,0,0,0,1.119-4.168v-1.459l1.9-1.692a7.819,7.819,0,0,0,2.213-2.655,3.147,3.147,0,0,0,.233-1.362,2.359,2.359,0,0,0-.895-2.111c-1.459-1.007-3.891,0-4.946-1.4-.486-.632-.4-1.493-.637-2.237-.486-1.512-2.237-2.329-3.856-2.354a16.66,16.66,0,0,0-4.727,1.007,27.754,27.754,0,0,1-10.067.943,6.575,6.575,0,0,0-2.757.1,3.8,3.8,0,0,0-2.237,2.6,6.111,6.111,0,0,0-.214,1.332,8.384,8.384,0,0,0-2.111,5.549v3.74a8.379,8.379,0,0,0,2.018,5.442,12.158,12.158,0,0,0,5.092,8.87v.3l.063.039a20.111,20.111,0,0,1-.535,3.438v-.248a35.149,35.149,0,0,1-14.1,3.711h-.8a5.432,5.432,0,0,0-3.89,1.459c-2.159,2.033-5.943,5.247-8.267,5.247-.486,0-12.761,2.4-14.794,2.8l-3.8-3.72-.117.219-.224-.219a9.234,9.234,0,0,0-1.235.18,29.437,29.437,0,0,1-6.735-14.857s8.4-9.566,5.311-18.48c-2.636-7.6-9.9,8.686-11.958,13.592a3.92,3.92,0,0,0-.126,2.7l6.823,21.991a10.315,10.315,0,0,0-.54,5.349h-.078l4.97,6.376a26.243,26.243,0,0,0,9.59,1.566,33.526,33.526,0,0,0,12.518-2.4h1.153l-.219.083h5.918l3.764,11.385c-.126,1.036-1.945,15.494-3.4,18.728a8.126,8.126,0,0,0-.574,3.4,25.989,25.989,0,0,0,1.085,6.59l3.3-.122-.126.258a171.645,171.645,0,0,0-10.213,25.454l-4.8,9.726,3.6,43.622h.146l.277.044h0c.389.058.973.146,1.741.243l-.282.486-7.932,13.13s-5.656,11.579,6.857,9.4c0,0,4.625-1.342,6.512-9.24l8.228-7.718s.384-5.126-1.945-7.173c-.146-2.368-.515-9.284.054-10.947.686-2.013-2.918-25.167-2.918-25.167s13.023-27.015,20.911-27.686a4.324,4.324,0,0,1,1.707.224c6.483,2.111,14.336,17.784,16.646,22.662h0l.107.224v.044l.088.19v.053l.078.165v.044l.068.151v.034l.058.122v.049l.044.092v.039l.029.068v.083h0l.024.058,1.026,30.37h0l.1.053h.049l-.088.627-.447,3.137s5.656,11.915,5.311,13.422,3.769,7.552,9.595,5.875,2.359-11.137,2.359-11.137l-5.612-11.565-.248-.516a11.029,11.029,0,0,0,1.576-1.172s-1.712-12.416,0-15.1,2.227-14.935,2.227-14.935-1.2-8.389-3.258-12.08l-8.617-30.759c2.582,2.4,4.591,3.341,6.269,3.278h.277a4.187,4.187,0,0,0,2.111-.525,5.95,5.95,0,0,0,.973-.686,1.538,1.538,0,0,0,.16-.16h0c2.4-2.013-2.743-9.9-5.656-14.589-2.806-4.523,1.06-16.812,1.352-17.726a4.636,4.636,0,0,1,.832-.486,5.13,5.13,0,0,1,1.906-.413c2.791.1,6.225,1.7,10.475,2.509a49.421,49.421,0,0,0,8.943.7h.175c1.191,0,2.271-.024,3.146-.058a5.316,5.316,0,0,0,2.286-.618h0a6.9,6.9,0,0,0,1.624-1.313l7.46-8.428-.195.092a4.192,4.192,0,0,0,0-2.966l7.883-13.617a5.179,5.179,0,0,0,.384-4.489Z" transform="translate(-288.719 -185.875)" fill="url(#linear-gradient)"/>
    <path id="パス_72" data-name="パス 72" d="M521.559,616.617l-7.941,7.611c-1.819,7.781-6.288,9.1-6.288,9.1-12.075,2.15-6.619-9.24-6.619-9.24l7.659-12.96.943-1.6s5.461-1.653,9.1-.661a3.112,3.112,0,0,1,1.24.671C521.934,611.516,521.559,616.617,521.559,616.617Z" transform="translate(-317.426 -370.581)" fill="#444176"/>
    <path id="パス_73" data-name="パス 73" d="M630.38,612.717c-5.627,1.653-9.595-4.3-9.24-5.792S616,593.707,616,593.707l.428-3.093.4-2.864,9.24.661.87,1.829,5.418,11.4S636.007,611.064,630.38,612.717Z" transform="translate(-377.28 -359.898)" fill="#444176"/>
    <path id="パス_74" data-name="パス 74" d="M529.135,610.8c-.87,1.493-7.927.739-11.365.272l.943-1.6s5.461-1.654,9.1-.661a3.112,3.112,0,0,1,1.24.671C529.1,610.294,529.135,610.8,529.135,610.8Z" transform="translate(-326.821 -370.556)" opacity="0.1"/>
    <path id="パス_75" data-name="パス 75" d="M627.389,590.22c-4.732,3.151-9.77.768-10.529.374l.4-2.864,9.24.661Z" transform="translate(-377.722 -359.887)" opacity="0.1"/>
    <path id="パス_76" data-name="パス 76" d="M572.151,491.183c-1.653,2.646,0,14.891,0,14.891-5.461,4.965-11.91,1.323-11.91,1.323l-.973-29.942s-10.752-24.651-18.363-23.99-20.182,27.3-20.182,27.3,3.472,22.828,2.811,24.8,0,11.579,0,11.579c-1.157,1.984-13.233,0-13.233,0l-3.472-43.014,4.61-9.6a170.171,170.171,0,0,1,9.848-25.094c1.337-2.806,2.232-4.518,2.232-4.518l8.8-1.833,28.571-5.923,10.266,37.368c1.984,3.638,3.142,11.91,3.142,11.91S573.8,488.537,572.151,491.183Z" transform="translate(-321.201 -277.404)" fill="#565387"/>
    <g id="グループ_1" data-name="グループ 1" transform="translate(185.61 149.736)" opacity="0.1">
      <path id="パス_77" data-name="パス 77" d="M600.623,535.168l-.973-29.942s-10.752-24.651-18.363-23.99a4.142,4.142,0,0,0-1,.224C587.711,483.925,597,505.226,597,505.226l.973,29.942a11.672,11.672,0,0,0,6.58,1.2A11.707,11.707,0,0,1,600.623,535.168Z" transform="translate(-544.546 -454.912)"/>
      <path id="パス_78" data-name="パス 78" d="M512.908,517.136l-3.472-43.014,4.63-9.614a170.173,170.173,0,0,1,9.848-25.094c1.337-2.806,2.232-4.518,2.232-4.518l8.8-1.833,26.081-5.422-.141-.52L532.3,433.063l-8.8,1.833s-.895,1.712-2.232,4.518a169.964,169.964,0,0,0-9.848,25.094l-4.63,9.595,3.472,43.014a62.135,62.135,0,0,0,10.5.846A78.124,78.124,0,0,1,512.908,517.136Z" transform="translate(-506.79 -427.12)"/>
    </g>
    <path id="パス_79" data-name="パス 79" d="M469.3,338.21s-9.43.486-8.107,10.422l2.646.331,3.968-4.3,1.984-3.638V340.2Z" transform="translate(-297.694 -231.712)" fill="#ced2df"/>
    <path id="パス_80" data-name="パス 80" d="M469.3,338.21s-9.43.486-8.107,10.422l2.646.331,3.968-4.3,1.984-3.638V340.2Z" transform="translate(-297.694 -231.712)" opacity="0.1"/>
    <path id="パス_81" data-name="パス 81" d="M693.2,345.69s7.781,4.134,5.792,8.934l-2.48.973-3.307-1.819-.486-4.3.331-2.976Z" transform="translate(-416.69 -235.554)" fill="#ced2df"/>
    <path id="パス_82" data-name="パス 82" d="M693.2,345.69s7.781,4.134,5.792,8.934l-2.48.973-3.307-1.819-.486-4.3.331-2.976Z" transform="translate(-416.69 -235.554)" opacity="0.1"/>
    <rect id="長方形_1" data-name="長方形 1" width="27.131" height="20.513" rx="10.256" transform="translate(209.677 67.452)" fill="#88455e"/>
    <path id="パス_83" data-name="パス 83" d="M462.742,303l-5.792,9.24-.486-1.644L448.6,284.959a3.944,3.944,0,0,1,.122-2.66c1.989-4.834,9-20.911,11.545-13.4,2.976,8.754-5.131,18.2-5.131,18.2a29.14,29.14,0,0,0,6.92,15.144C462.48,302.743,462.742,303,462.742,303Z" transform="translate(-291.197 -195.097)" fill="#ec8c9c"/>
    <path id="パス_84" data-name="パス 84" d="M691.16,318.185s9.1-8.6,8.754-12.075c0,0-8.6-13.894-4.3-17.021,3.4-2.49,8.574,10.057,10.577,15.392a5.2,5.2,0,0,1-.345,4.377L694.973,328.11Z" transform="translate(-415.889 -206.313)" fill="#ec8c9c"/>
    <path id="パス_85" data-name="パス 85" d="M565.894,299.919s1.654,10.587-3.142,14.56,13.733,3.949,13.733,3.949l6.619-6.123s-7.611-7.115-5.3-12.406Z" transform="translate(-349.52 -212.032)" fill="#ec8c9c"/>
    <path id="パス_86" data-name="パス 86" d="M554.943,324.071s7.115,5.3,14.225-.661l11.579,23.99-.661,29.281s-23.99,12.406-33.915,4.8-1.654-11.579-1.654-11.579L542.2,347.4l2.48-14.56s4.464-6.949,4.8-6.949S554.943,324.071,554.943,324.071Z" transform="translate(-338.9 -224.109)" opacity="0.1"/>
    <path id="パス_87" data-name="パス 87" d="M554.948,323.391s7.115,5.306,14.229-.661l11.579,23.99L580.1,376s-23.99,12.406-33.915,4.8-1.653-11.579-1.653-11.579l-2.315-22.5,2.48-14.56s4.464-6.949,4.8-6.949S554.948,323.391,554.948,323.391Z" transform="translate(-338.905 -223.76)" fill="#ebf1f6"/>
    <path id="パス_88" data-name="パス 88" d="M514.148,319s-6.745,3.842-14.069,3.652a5.184,5.184,0,0,0-3.74,1.43c-2.086,2-5.738,5.174-8,5.174-.486,0-14.56,2.811-14.56,2.811l-3.72-3.72s-5.544,10.835-8.19,10.339l4.8,6.288s9.1,3.968,21.009-.827h6.949l3.638,11.248s-1.819,15.222-3.307,18.529.486,9.76.486,9.76l13.067-.486s.661-6.453,1.653-7.295-3.472-29.281-3.472-29.281-2.976-16.048,7.941-21.835Z" transform="translate(-298.105 -221.844)" opacity="0.1"/>
    <path id="パス_89" data-name="パス 89" d="M547.59,439.38a43.2,43.2,0,0,0-1.026,5.967l-10,.379c1.337-2.806,2.232-4.518,2.232-4.518Z" transform="translate(-336.473 -283.682)" opacity="0.1"/>
    <path id="パス_90" data-name="パス 90" d="M471.238,340.294l-5.792,9.24-.486-1.644c2.125-2.111,4.615-6.521,5.607-8.36A9.808,9.808,0,0,0,471.238,340.294Z" transform="translate(-299.693 -232.39)" opacity="0.1"/>
    <path id="パス_91" data-name="パス 91" d="M513.784,319s-7.081,3.842-14.4,3.652a5.184,5.184,0,0,0-3.74,1.43c-2.086,2-5.738,5.174-8,5.174-.486,0-14.56,2.811-14.56,2.811l-3.735-3.725s-5.544,10.835-8.189,10.339l4.8,6.288s9.1,3.968,21.009-.827h6.949l3.638,11.244s-1.819,15.222-3.307,18.528.486,9.76.486,9.76l13.067-.486s.661-6.453,1.653-7.295-3.472-29.281-3.472-29.281-2.976-16.048,7.941-21.835Z" transform="translate(-297.741 -221.844)" fill="#ced2df"/>
    <path id="パス_92" data-name="パス 92" d="M596.221,316.94a32.192,32.192,0,0,0,15.761,5.738,4.79,4.79,0,0,1,2.7,1.046,26.125,26.125,0,0,1,5.695,6.808c3.638,5.957,12.571,5.3,12.571,5.3s8.686-2.728,9.182-4.863c0,0,.248,11.672,5.709,8.851l-7.183,8.277a5.067,5.067,0,0,1-3.623,1.746,53.253,53.253,0,0,1-11.346-.627c-5.957-1.157-10.256-3.968-13.4-1.488,0,0-4.134,12.9-1.323,17.536s7.781,12.406,5.461,14.395-5.131,1.819-9.76-2.976-5.13-12.9-5.13-12.9l1.157-20.843s-4.464-15.718-8.754-18.859Z" transform="translate(-365.948 -220.786)" opacity="0.1"/>
    <path id="パス_93" data-name="パス 93" d="M649.173,339.776l-7.2,8.311a5.062,5.062,0,0,1-1.736,1.294h0a5.043,5.043,0,0,1-1.877.443,52.621,52.621,0,0,1-11.346-.627c-5.573-1.084-9.7-3.613-12.78-1.906a4.522,4.522,0,0,0-.622.413s-4.134,12.9-1.323,17.536,7.781,12.406,5.461,14.395a5.351,5.351,0,0,1-1.294.841c-2.081.939-4.664.126-8.467-3.818-4.63-4.8-5.131-12.9-5.131-12.9l1.157-20.843s-4.464-15.718-8.754-18.859l1.892-6.784a34.344,34.344,0,0,0,15.854,5.573,4.79,4.79,0,0,1,2.7,1.046A26.145,26.145,0,0,1,621.4,330.7c3.638,5.957,12.571,5.3,12.571,5.3a48.275,48.275,0,0,0,6.259-2.49h0a9.539,9.539,0,0,0,2.918-1.945,1.459,1.459,0,0,0,.316-.584S643.716,342.587,649.173,339.776Z" transform="translate(-366.626 -220.955)" opacity="0.1"/>
    <path id="パス_94" data-name="パス 94" d="M648.477,339.777l-7.2,8.321a5.062,5.062,0,0,1-1.4,1.128h0a5.048,5.048,0,0,1-2.208.608,52.624,52.624,0,0,1-11.346-.627c-5.374-1.046-9.405-3.438-12.445-2.072a4.5,4.5,0,0,0-.973.579s-4.134,12.9-1.323,17.536,7.781,12.406,5.461,14.395a5.74,5.74,0,0,1-.973.676c-2.14,1.182-4.785.486-8.8-3.652-4.63-4.8-5.131-12.9-5.131-12.9l1.157-20.843s-4.464-15.718-8.754-18.859l1.984-7.115.238.165a34.344,34.344,0,0,0,15.854,5.573,4.79,4.79,0,0,1,2.7,1.046,26.144,26.144,0,0,1,5.695,6.808c3.638,5.957,12.571,5.3,12.571,5.3a48.276,48.276,0,0,0,6.259-2.49h0c1.5-.768,2.728-1.61,2.918-2.378v.418C642.914,333.4,643.643,342.263,648.477,339.777Z" transform="translate(-366.262 -220.791)" fill="#ced2df"/>
    <path id="パス_95" data-name="パス 95" d="M582.008,300.45H569.85a29.744,29.744,0,0,1,.229,5.836,12.5,12.5,0,0,0,12.848.924C581.76,305.051,581.05,302.6,582.008,300.45Z" transform="translate(-353.573 -212.315)" opacity="0.1"/>
    <circle id="楕円形_10" data-name="楕円形 10" cx="12.075" cy="12.075" r="12.075" transform="translate(211.579 71.839)" fill="#ec8c9c"/>
    <path id="パス_96" data-name="パス 96" d="M569.87,269.468c1.347-.16,2.694-.637,4.022-.37,1.206.243,2.232,1.075,3.438,1.328,2.325.486,4.484-1.225,6.239-2.821l3.793-3.453a7.743,7.743,0,0,0,2.14-2.616,2.626,2.626,0,0,0-.642-3.093c-1.386-.973-3.774,0-4.776-1.381a7.207,7.207,0,0,1-.618-2.2,3.871,3.871,0,0,0-3.725-2.32,16.478,16.478,0,0,0-4.562.973,26.261,26.261,0,0,1-9.726.929,6.215,6.215,0,0,0-2.66.092,3.72,3.72,0,0,0-2.159,2.563c-.749,2.646.53,6.91,1.814,9.279S567.307,269.784,569.87,269.468Z" transform="translate(-348.726 -187.704)" opacity="0.1"/>
    <path id="パス_97" data-name="パス 97" d="M569.87,268.788c1.347-.16,2.694-.637,4.022-.37,1.206.243,2.232,1.075,3.438,1.328,2.325.486,4.484-1.225,6.239-2.821l3.793-3.453a7.743,7.743,0,0,0,2.14-2.616,2.626,2.626,0,0,0-.642-3.093c-1.386-.973-3.774,0-4.776-1.381a7.207,7.207,0,0,1-.618-2.2,3.871,3.871,0,0,0-3.725-2.32,16.478,16.478,0,0,0-4.562.973,26.261,26.261,0,0,1-9.726.929,6.215,6.215,0,0,0-2.66.092,3.72,3.72,0,0,0-2.159,2.563c-.749,2.646.53,6.91,1.814,9.279S567.307,269.08,569.87,268.788Z" transform="translate(-348.726 -187.354)" fill="#88455e"/>
    <path id="パス_98" data-name="パス 98" d="M536.55,394a6.818,6.818,0,0,1,3.968,1.984,7.129,7.129,0,0,0,3.638,2.15" transform="translate(-336.468 -260.371)" opacity="0.1"/>
    <path id="パス_99" data-name="パス 99" d="M487.461,349.09s2.159,4.819.827,5.306-.827,3.968-.827,3.968" transform="translate(-311.203 -237.301)" opacity="0.1"/>
    <g id="グループ_2" data-name="グループ 2" transform="translate(176.851 97.234)" opacity="0.1">
      <path id="パス_100" data-name="パス 100" d="M488.931,335.922s14.059-2.811,14.546-2.811c2.266,0,5.914-3.171,8-5.174a5.106,5.106,0,0,1,2.266-1.26h-.18a5.184,5.184,0,0,0-3.74,1.43c-2.086,2-5.738,5.174-8,5.174-.394,0-9.391,1.785-13.043,2.509Z" transform="translate(-488.78 -323.02)"/>
      <path id="パス_101" data-name="パス 101" d="M558.027,319.778v-.618a35.1,35.1,0,0,1-10.777,3.448A33.3,33.3,0,0,0,558.027,319.778Z" transform="translate(-518.815 -319.16)"/>
      <path id="パス_102" data-name="パス 102" d="M525,410.057s-1.984-6.453-.486-9.76,3.307-18.529,3.307-18.529l-3.628-11.248h-6.969l-.423.165h5.714l3.623,11.253s-1.819,15.222-3.307,18.529.486,9.76.486,9.76l13.067-.486v-.1Z" transform="translate(-503.174 -345.543)"/>
    </g>
    <g id="グループ_3" data-name="グループ 3" transform="translate(236.05 118.996)" opacity="0.1">
      <path id="パス_103" data-name="パス 103" d="M625.411,424.644a5.737,5.737,0,0,1-.973.676c-2.14,1.182-4.785.486-8.8-3.652-3.677-3.808-4.746-9.726-5.033-11.968l-.1,1.712s.486,8.107,5.131,12.9c4.012,4.153,6.658,4.834,8.8,3.652a5.74,5.74,0,0,0,.973-.676c.7-.6.734-1.722.37-3.122A1.532,1.532,0,0,1,625.411,424.644Z" transform="translate(-610.51 -387.432)"/>
      <path id="パス_104" data-name="パス 104" d="M663.281,364.148l-4.683,5.413a5.061,5.061,0,0,1-1.4,1.128h0a5.048,5.048,0,0,1-2.208.608,52.624,52.624,0,0,1-11.346-.627c-5.374-1.046-9.405-3.438-12.445-2.072a4.5,4.5,0,0,0-.973.579s-2.67,8.335-2.261,14.011a54.707,54.707,0,0,1,2.261-11.365,4.5,4.5,0,0,1,.973-.579c3.044-1.367,7.071,1.026,12.445,2.072a53.241,53.241,0,0,0,11.346.627,5.048,5.048,0,0,0,2.208-.608h0a5.062,5.062,0,0,0,1.4-1.114l7.2-8.311a2.835,2.835,0,0,1-2.519.238Z" transform="translate(-619.455 -363.91)"/>
    </g>
    <path id="パス_105" data-name="パス 105" d="M265.74,486.89a.374.374,0,0,0,.443.058,1.508,1.508,0,0,1-.443-.058Z" transform="translate(-197.356 -308.087)" fill="url(#linear-gradient-2)"/>
    <path id="パス_106" data-name="パス 106" d="M243.044,295.42c-.875-.253-2.125-.666-3.628-1.191a19.024,19.024,0,0,0,3.36-6.769l-.126.049c.044-.151.088-.3.126-.452-2.884,1.172-6.074-.812-8.107-3.36s-3.4-5.709-5.631-8.053a25.782,25.782,0,0,0-2.986-2.573,4.128,4.128,0,0,0-2.164-1.06c-1.3-.039-2.315,1.235-3.565,1.61a4.864,4.864,0,0,1-2.485-.092c-3.224-.739-6.322-2.106-9.614-2.466a11.268,11.268,0,0,0-5.218.588c-1.653.627-2.407,1.877-3.745,2.879-1.459,1.075-4.309,1.05-6.006,1.24a43.041,43.041,0,0,1-6.205.258,14.524,14.524,0,0,0-3.57.131c-2.466.54-4.445,2.5-6.293,4.377a3.244,3.244,0,0,0-1.041,1.629,2.057,2.057,0,0,0,0,.54,3.506,3.506,0,0,0,.248,1.435,18.966,18.966,0,0,0,2.388,4.751,13.722,13.722,0,0,1,2.062,3.375,6.551,6.551,0,0,1,.316,1.945,14.151,14.151,0,0,1-.219,2.091,26.26,26.26,0,0,1-1.6,5.568,10.115,10.115,0,0,0-.934,2.918,4.649,4.649,0,0,0,0,.622c-.122,3.21,3.117,5.52,3.745,8.71a5.2,5.2,0,0,1,.092.8,5.434,5.434,0,0,1-2.874,4.707c.146.058.3.107.447.156a4.058,4.058,0,0,1-.447.243,9.08,9.08,0,0,0,.934.3,21.69,21.69,0,0,0-4.722,5.836c-5.627,10.475-43.734,30.993-43.734,30.993l.564.321-.457.3c-3.3,2.193-11.034,8.588-4.041,16.676,0,0,5.461-8.617,9.289-12.289.17-.165.34-.316.486-.457a1.119,1.119,0,0,1,.146.885L162.89,348.51s8.9-6.235,11.389-7.64a20.5,20.5,0,0,1,5.646-2.432l-.292.122a11.437,11.437,0,0,1,2.874-.409c4.435.068,9.24,3.317,10.82,16.18,2.12,17.225,1.138,20.333.457,20.756a1.251,1.251,0,0,1-.248-.044.424.424,0,0,0,.068.049,1.3,1.3,0,0,1-.272-.049.389.389,0,0,0,.37.088.345.345,0,0,0,.277-.034h0a2.876,2.876,0,0,0,.336,0,3.577,3.577,0,0,1-.034.486c-.034,0-.2.092,0,.1h0c-.053.973-.049,2.028,0,3.132-2.2.122-4.406.253-6.322.37l.17-.909.078-.409c1.692-.136,3.3-.632,3.487-2,.413-3.015-3.725-4.625-7.246-4.824s-24.637,1.206-24.637,1.206-3.166,4.1,6.876,5.349l.929.486a111.619,111.619,0,0,1,11.827,8.4l.355.282-1.148.934c6.21,1.405,12.216,25.137,15.528,35.987s10.558,10.456,16.564,8.846c5.627-1.508,6.322-17.848,6.414-19.9v-.209l10.008,12.362.759.939q.438.229.866.428c7.577,3.6,15.946-3.307,13.568-11.185-2.407-7.941-6.142-19.686-8.632-24.651-2.086-4.158-4.78-11.064-6.414-15.387a5.193,5.193,0,0,0,.618-.3s-.039-.195-.1-.55l.1-.053s-2.432-12.508-2.539-21.4v-.773c1.809-.413,2.957-.574,2.957-.574l.034-.389-.209.044,1.007-11.521s3.7-7.864.866-11.137a6.876,6.876,0,0,1-1.658-3.4c-.486-3.01,0-8.034,6.59-12.206,10.144-6.434,14.1-11.671,14.1-11.671S249.255,297.248,243.044,295.42ZM222.9,303.415v-5.325c1.882-.092,3.8.126,5.695,0a14.411,14.411,0,0,0,2.748-.462l.457.316A50.093,50.093,0,0,1,222.9,303.415Zm-28.765,83.471c.744.516,1.493,1.05,2.227,1.59.457,2.626.861,4.479.89,4.61A36.4,36.4,0,0,0,194.131,386.885Z" transform="translate(-125.1 -197.174)" fill="url(#linear-gradient-3)"/>
    <path id="パス_107" data-name="パス 107" d="M275.658,500.32l-.438,2.378-.336,1.819-.613,3.326L268.329,512s-.535-.457-1.42-1.182a104.165,104.165,0,0,0-11.312-8.267,12.644,12.644,0,0,0-3.108-1.435Z" transform="translate(-190.549 -314.986)" fill="#ffbdc6"/>
    <path id="パス_108" data-name="パス 108" d="M275.653,500.32l-.438,2.378a18.479,18.479,0,0,1-3.92-.2l-13.865.2c-.657-.039-1.269-.092-1.843-.151a12.645,12.645,0,0,0-3.108-1.435Z" transform="translate(-190.544 -314.986)" opacity="0.1"/>
    <path id="パス_109" data-name="パス 109" d="M266.214,497.061s6.935,1.187,7.329-1.785-3.565-4.537-6.925-4.761-23.576,1.2-23.576,1.2-3.565,4.751,9.308,5.544Z" transform="translate(-185.463 -309.937)" fill="#7679b4"/>
    <path id="パス_110" data-name="パス 110" d="M275.658,500.32l-.438,2.378-.336,1.819-.613,3.326L268.329,512s-.535-.457-1.42-1.182a104.165,104.165,0,0,0-11.312-8.267,12.644,12.644,0,0,0-3.108-1.435Z" transform="translate(-190.549 -314.986)" opacity="0.1"/>
    <path id="パス_111" data-name="パス 111" d="M275.653,500.32l-.438,2.378a18.479,18.479,0,0,1-3.92-.2l-13.865.2c-.657-.039-1.269-.092-1.843-.151a12.645,12.645,0,0,0-3.108-1.435Z" transform="translate(-190.544 -314.986)" opacity="0.1"/>
    <path id="パス_112" data-name="パス 112" d="M266.214,497.061s6.935,1.187,7.329-1.785-3.565-4.537-6.925-4.761-23.576,1.2-23.576,1.2-3.565,4.751,9.308,5.544Z" transform="translate(-185.463 -309.937)" opacity="0.1"/>
    <rect id="長方形_2" data-name="長方形 2" width="36.245" height="42.98" transform="translate(59.655 89.467)" fill="#a66477"/>
    <rect id="長方形_3" data-name="長方形 3" width="36.245" height="42.98" transform="translate(59.655 89.467)" opacity="0.1"/>
    <path id="パス_113" data-name="パス 113" d="M145.848,450.73a5.806,5.806,0,0,0-2.208,1.561c-3.662,3.618-8.885,12.1-8.885,12.1-6.692-7.966.715-14.264,3.891-16.428.768-.525,1.284-.807,1.284-.807Z" transform="translate(-128.677 -287.678)" fill="#ffbdc6"/>
    <path id="パス_114" data-name="パス 114" d="M279.024,331.09s1.785,12.479,7.922,15.45-7.922,8.515-7.922,8.515l-19.214-7.129s10.893-3.565,8.715-14.064Z" transform="translate(-194.309 -228.054)" fill="#ffbdc6"/>
    <path id="パス_115" data-name="パス 115" d="M232.528,485.45l-.438,2.378-.336,1.819-.613,3.326-5.943,4.158s-.535-.457-1.42-1.182a104.168,104.168,0,0,0-11.312-8.267,12.645,12.645,0,0,0-3.108-1.435Z" transform="translate(-168.394 -307.347)" fill="#ffbdc6"/>
    <path id="パス_116" data-name="パス 116" d="M232.523,485.45l-.438,2.378a18.483,18.483,0,0,1-3.92-.2l-13.865.2c-.657-.039-1.269-.092-1.843-.151a12.643,12.643,0,0,0-3.108-1.435Z" transform="translate(-168.389 -307.347)" opacity="0.1"/>
    <path id="パス_117" data-name="パス 117" d="M223.039,482.2s6.935,1.187,7.329-1.785-3.565-4.557-6.935-4.751-23.572,1.187-23.572,1.187-3.565,4.751,9.308,5.544Z" transform="translate(-163.282 -302.309)" fill="#7679b4"/>
    <path id="パス_118" data-name="パス 118" d="M246.946,493.941l-.613,3.326-5.943,4.158s-.535-.457-1.42-1.182l7.859-6.444Z" transform="translate(-183.604 -311.637)" opacity="0.1"/>
    <path id="パス_119" data-name="パス 119" d="M285.345,529.977q-.409-.2-.827-.423l-.725-.924-9.571-12.158v.214c-.063,2.018-.754,18.115-6.132,19.6-5.743,1.585-12.678,1.979-15.844-8.715s-8.914-34.066-14.857-35.452l8.812-7.231s5.836,6.808,8.219,13.364c-.088-.418-4.119-19.243-.793-22.57h28.916s4.455,12.712,7.528,19.015c2.383,4.892,5.957,16.457,8.267,24.281A9.3,9.3,0,0,1,285.345,529.977Z" transform="translate(-182.793 -302.329)" fill="#7679b4"/>
    <path id="パス_120" data-name="パス 120" d="M300.252,453.72c-4.46,2.641-24.068,1.566-30.458,1.138l-1.736-.126c-.19,0,.029-.107.029-.107l.18-1.8,4.751-12.08L298.472,426a22.025,22.025,0,0,0-.647,6.658C297.952,441.4,300.252,453.72,300.252,453.72Z" transform="translate(-198.507 -276.809)" opacity="0.1"/>
    <path id="パス_121" data-name="パス 121" d="M300.031,452.52c-4.46,2.641-24.068,1.566-30.458,1.138l-1.736-.126h-.287l.316-.083,1.566-.413,3.365-13.471,25.454-14.755a22.025,22.025,0,0,0-.647,6.658C297.73,440.2,300.031,452.52,300.031,452.52Z" transform="translate(-198.285 -276.197)" fill="#f2f1f2"/>
    <path id="パス_122" data-name="パス 122" d="M297.912,431.4c-5.174,1.191-16.564,4.7-20.941,13.13-2.918,5.632-5.349,8.048-7.086,9.06l-1.736-.126.029-.107,1.566-.413,3.365-13.471,25.454-14.755A22.027,22.027,0,0,0,297.912,431.4Z" transform="translate(-198.594 -276.151)" opacity="0.1"/>
    <path id="パス_123" data-name="パス 123" d="M146.854,447.17l5.943,3.565a5.806,5.806,0,0,0-2.208,1.561c-.486-1.459-3.608-3.463-5.019-4.318C146.338,447.452,146.854,447.17,146.854,447.17Z" transform="translate(-135.626 -287.683)" opacity="0.1"/>
    <path id="パス_124" data-name="パス 124" d="M265.558,484.284a.355.355,0,0,1-.418-.053A1.43,1.43,0,0,0,265.558,484.284Z" transform="translate(-197.047 -306.721)" opacity="0.1"/>
    <path id="パス_125" data-name="パス 125" d="M217.451,329.248a11.782,11.782,0,0,1-9.113-3.365s-15.844,4.557-21.193,14.857-41.794,30.5-41.794,30.5,6.322,3.565,5.743,5.349l23.965-13.865s8.515-6.142,10.893-7.528,15.45-9.9,18.222,13.271,0,20.425,0,20.425,3.963,1.386,9.726-9.726S237.472,365.5,237.472,365.5l.973-11.671s3.535-7.742.827-10.971a6.857,6.857,0,0,1-1.585-3.351c-.452-2.966,0-7.912,6.322-12.022C253.734,321.165,257.479,316,257.479,316s.2-3.764-5.743-5.544-30.108-11.487-30.108-11.487l-.793,3.365,19.015,13.471s-9.507,7.723-17.021,7.528C222.8,323.3,224.186,329.048,217.451,329.248Z" transform="translate(-135.513 -211.555)" fill="#565388"/>
    <path id="パス_126" data-name="パス 126" d="M288.662,337.123a38.909,38.909,0,0,1-1.094-4.863l-10.5,2.791a11.574,11.574,0,0,1-.238,6.055,11.292,11.292,0,0,0,11.832-3.988Z" transform="translate(-203.052 -228.655)" opacity="0.1"/>
    <circle id="楕円形_11" data-name="楕円形 11" cx="11.292" cy="11.292" r="11.292" transform="translate(65.598 89.662)" fill="#ffbdc6"/>
    <path id="パス_127" data-name="パス 127" d="M263.108,273.895c3.132.355,6.113,1.7,9.2,2.432a4.543,4.543,0,0,0,2.378.092c1.2-.37,2.169-1.624,3.4-1.585a3.579,3.579,0,0,1,2.072,1.046,24.856,24.856,0,0,1,2.855,2.534c2.125,2.31,3.448,5.422,5.388,7.932s5,4.464,7.757,3.312c-1.872,7.295-8.019,12.873-14.662,13.325-2.65.18-5.349-.37-7.932.409a6.944,6.944,0,0,1-2,.486c-1.459,0-2.665-1.357-3.589-2.675-2.159-3.1-3.891-6.624-6.322-9.449a5.168,5.168,0,0,0-2.884-1.994,5.34,5.34,0,0,0-3.19.895,15.145,15.145,0,0,0-4.669,3.239,6.474,6.474,0,0,0-1.576,5.695c.287,1.08.948,2.052.973,3.185,0,1.8-1.566,3.117-1.882,4.863a18.769,18.769,0,0,0-.078,2.218c-.141,2.4-1.707,4.377-3.351,5.88a4.229,4.229,0,0,0-1.532,2.125c-.126.618,0,1.274-.083,1.9-.238,1.561-1.794,2.349-3.171,2.553a9.192,9.192,0,0,1-4.756-.564,5.467,5.467,0,0,0,2.66-5.836c-.613-3.215-3.842-5.52-3.57-8.8a10.178,10.178,0,0,1,.895-2.894,26.479,26.479,0,0,0,1.527-5.486,9.293,9.293,0,0,0-.092-4.377,13.818,13.818,0,0,0-1.974-3.326,18.878,18.878,0,0,1-2.286-4.683,3.283,3.283,0,0,1-.219-1.546,3.2,3.2,0,0,1,.973-1.6c1.77-1.853,3.667-3.784,6.021-4.318a13.5,13.5,0,0,1,3.4-.131,40,40,0,0,0,5.938-.253c1.624-.19,4.377-.165,5.748-1.225,1.279-.973,2-2.213,3.584-2.835A10.49,10.49,0,0,1,263.108,273.895Z" transform="translate(-180.217 -198.623)" opacity="0.1"/>
    <path id="パス_128" data-name="パス 128" d="M308.48,513.76s6.536,12.873,4.557,16.836" transform="translate(-219.311 -321.89)" opacity="0.1"/>
    <path id="パス_129" data-name="パス 129" d="M322.657,568.9l-9.571-12.158v.214s-.554-3.929,1.269-2.607c3.993,2.889,10.383,7.625,10.519,8.442S323.581,566.89,322.657,568.9Z" transform="translate(-221.636 -342.602)" opacity="0.1"/>
    <g id="グループ_4" data-name="グループ 4" transform="translate(10.037 87.381)" opacity="0.1">
      <path id="パス_130" data-name="パス 130" d="M303.094,348.831s.807,3.346-1.8,5.019a4.486,4.486,0,0,0,4.075-5.179A12.671,12.671,0,0,1,303.094,348.831Z" transform="translate(-225.654 -324.466)"/>
      <path id="パス_131" data-name="パス 131" d="M147.944,399.22s36.444-20.2,41.794-30.5c3.837-7.392,13.082-11.822,17.994-13.738-3.584,1.2-15.645,5.807-20.177,14.531-5.349,10.3-41.794,30.5-41.794,30.5Z" transform="translate(-145.76 -327.708)"/>
      <path id="パス_132" data-name="パス 132" d="M310,321.693c6.2-1.945,12.129-6.745,12.129-6.745l-19.015-13.471.433-1.848-1.819-.729-.793,3.365,19.015,13.471A45.884,45.884,0,0,1,310,321.693Z" transform="translate(-225.474 -298.9)"/>
      <path id="パス_133" data-name="パス 133" d="M319.83,437.236a47.116,47.116,0,0,1,7.455-1.882l.034-.384A50.453,50.453,0,0,0,319.83,437.236Z" transform="translate(-235.178 -368.798)"/>
      <path id="パス_134" data-name="パス 134" d="M255.463,443.86h-.175a.355.355,0,0,1-.418-.053,1.458,1.458,0,0,0,.418.053c.652-.379,1.629-3.336-.418-20.454-2.188-18.276-10.777-16.841-15.479-14.74,4.8-1.323,11.419-.18,13.3,15.533,2.047,17.118,1.07,20.08.418,20.454a4.377,4.377,0,0,0,2.354-.793Z" transform="translate(-193.857 -354.671)"/>
      <path id="パス_135" data-name="パス 135" d="M267.158,483.884a1.46,1.46,0,0,1-.418-.053A.355.355,0,0,0,267.158,483.884Z" transform="translate(-207.906 -393.896)"/>
    </g>
    <path id="パス_136" data-name="パス 136" d="M263.108,273.1c3.132.355,6.113,1.7,9.2,2.432a4.542,4.542,0,0,0,2.378.092c1.2-.37,2.169-1.624,3.4-1.585a3.578,3.578,0,0,1,2.072,1.046,24.854,24.854,0,0,1,2.855,2.534c2.125,2.31,3.448,5.422,5.388,7.932s5,4.464,7.757,3.312c-1.872,7.295-8.019,12.873-14.662,13.325-2.65.18-5.349-.37-7.932.409a6.944,6.944,0,0,1-2,.486c-1.459,0-2.665-1.357-3.589-2.675-2.159-3.1-3.891-6.624-6.322-9.449a5.168,5.168,0,0,0-2.884-1.994,5.34,5.34,0,0,0-3.19.895,15.147,15.147,0,0,0-4.669,3.239,6.474,6.474,0,0,0-1.576,5.695c.287,1.08.948,2.052.973,3.185,0,1.8-1.566,3.117-1.882,4.863a18.777,18.777,0,0,0-.078,2.218c-.141,2.4-1.707,4.377-3.351,5.88a4.229,4.229,0,0,0-1.532,2.125c-.126.618,0,1.274-.083,1.9-.238,1.561-1.794,2.349-3.171,2.553a9.191,9.191,0,0,1-4.756-.564,5.467,5.467,0,0,0,2.66-5.836c-.613-3.215-3.842-5.52-3.57-8.8a10.179,10.179,0,0,1,.895-2.894,26.481,26.481,0,0,0,1.527-5.486,9.294,9.294,0,0,0-.092-4.377,13.817,13.817,0,0,0-1.974-3.326,18.879,18.879,0,0,1-2.286-4.683,3.283,3.283,0,0,1-.219-1.546,3.2,3.2,0,0,1,.973-1.6c1.77-1.853,3.667-3.784,6.021-4.318a13.5,13.5,0,0,1,3.4-.131,39.991,39.991,0,0,0,5.938-.253c1.624-.19,4.377-.165,5.748-1.225,1.279-.973,2-2.213,3.584-2.835A10.49,10.49,0,0,1,263.108,273.1Z" transform="translate(-180.217 -198.217)" fill="#a66477"/>
    <path id="パス_137" data-name="パス 137" d="M849.726,207.688h0v-.18a.41.41,0,0,0-.029-.185h-.078v-.4c-.194-4.508-6.429-14.1-8.929-11.3-2.188,2.461,1.114,8.686,2.8,11.487l.151.253-.083-.053s-6.959,20.756-7.781,21.563-6.551,17.128-14.1,18.966c-1.493.355-2.733.676-3.774.973l.083-.277a30.086,30.086,0,0,0,1.328-4.863c.243-1.77,0-3.915-.895-4.776-.438-.428-.973-.486-1.332-1.167a5.385,5.385,0,0,1-.37-1.872l-.642-7.868.447-.136c2.7-.866,5.325-2.918,5.632-5.68a2.909,2.909,0,0,1-.287.092,4.928,4.928,0,0,0,.083-.486c-2.271.895-4.377-1.459-6.565-2.514-3.6-1.765-7.723-.1-11.443.3-4.216.462-8.219-1.289-12.527-.973-2.344.18-4.951,1.77-4.824,4.08.073,1.269.973,2.344,1.342,3.56.934,2.942-1.143,5.894-2.962,8.4a12.509,12.509,0,0,0-2.548,5.593c-4.187-4.377-8.715-9.434-9.24-11.336L761.062,208.13s-.287.306-.749.759c-.073-.224-.16-.486-.258-.749-1.547-4.333-5.923-14.833-11.472-12.907s2.3,12.688,5.714,16.977l.486.593a1.537,1.537,0,0,1-.866-.039l13.51,23.173s2.456,4.435,4.708,5.641c0,0,16.783,21.159,16.987,25.39s7.548,15.518,7.548,15.518,2.456,18.339-1.843,21.563h.71q-.306.3-.627.657c-3.185,3.531-7.256,11.1-1.692,23.965,8.185,18.966,9.415,26.4,9.415,26.4s-15.562.807-18.626,1.41c-2.714.535-13.262.909-15.674.973-.861-1-3.4-3.219-6.838,0-4.3,4.031-7.368,17.507-7.368,17.507s-1.639,10.884,3.891,8.058c0,0,6.551-9.07,8.389-9.473.914-.2,1.882-1.546,2.621-2.845l.039.024h0c.044,0,.224-.1.516-.214h0c1.362-.54,5.111-1.838,8.068-1.191,1.62.355,8.564.438,15.844.418-1.644,3.939-4.591,14.1-4.591,14.1s-1.23,9.478,2.855,9.089c2.918-.287,7.392-7.742,9.726-12,1.692-1.24,6.541-5.685,10.125-5.349l24.15-9.269s5.729-3.224,2.66-13.9c-2.432-8.491-9.352-25.872-12.085-32.646h0l-.083-.175c-.661-1.639-1.06-2.611-1.06-2.611h0A39.97,39.97,0,0,1,823,307.392c-.024-.258-.044-.52-.063-.778a4.3,4.3,0,0,0,.948-.55s-2.252-22.769,0-25.191h0l.039-.044h0V280.8h0l.039-.049h0l.088-.112h0l.107-.136h0c.122-.16.267-.36.433-.6h0c1.289-1.887,3.691-6.2,3-11.282h0q-.044-.331-.107-.666h0a13.894,13.894,0,0,0-1.4-3.949,10.968,10.968,0,0,1-.18-1.561v-1.381a4.676,4.676,0,0,1,.073-.7v-.088a.871.871,0,0,1,.044-.267v-.112a1.272,1.272,0,0,1,.058-.263v-.092c.029-.117.058-.233.1-.35v-.058q.044-.146.1-.287l.044-.112.1-.233.049-.117c.039-.088.083-.175.126-.263l.034-.073q.088-.16.185-.316l.053-.083.161-.229.078-.1.17-.2.078-.088c.088-.092.175-.185.272-.272,2.66-2.432,14.531-20.352,14.531-20.352s2.864-4.032,2.864-6.648C845.174,229.694,850.237,212.819,849.726,207.688ZM817.858,358.323c-.292-2.762-.584-6.186-.851-9.726l4.63,7.217S821.2,358.012,817.858,358.323Z" transform="translate(-444.396 -158.147)" fill="url(#linear-gradient-4)"/>
    <path id="パス_138" data-name="パス 138" d="M778.722,525.516s-2.772-4.377-6.935-.394-7.129,17.23-7.129,17.23-1.585,10.7,3.764,7.922c0,0,6.322-8.914,8.121-9.308s3.764-5.349,3.764-5.349Z" transform="translate(-453.531 -326.867)" fill="#493545"/>
    <path id="パス_139" data-name="パス 139" d="M844.055,548.714s-3.764-1.785-4.951-.394-5.15,15.251-5.15,15.251-1.187,9.114,2.772,8.715,10.893-14.667,10.893-14.667Z" transform="translate(-489.155 -339.37)" fill="#493545"/>
    <path id="パス_140" data-name="パス 140" d="M844.055,548.714s-3.764-1.785-4.951-.394-5.15,15.251-5.15,15.251-1.187,9.114,2.772,8.715,10.893-14.667,10.893-14.667Z" transform="translate(-489.155 -339.37)" opacity="0.05"/>
    <path id="パス_141" data-name="パス 141" d="M865.847,468.811l8.515,13.271s-.593,2.971-5.743,2.378L850.99,495.553s-1.532,13.5,3.365,12.279c.793-.2,6.322-5.943,10.3-5.544l23.377-9.113s5.544-3.171,2.573-13.665-12.795-34.83-12.795-34.83l-15.528,8.686Z" transform="translate(-497.875 -286.404)" fill="#3e3d77"/>
    <path id="パス_142" data-name="パス 142" d="M865.847,468.811l8.515,13.271s-.593,2.971-5.743,2.378L850.99,495.553s-1.532,13.5,3.365,12.279c.793-.2,6.322-5.943,10.3-5.544l23.377-9.113s5.544-3.171,2.573-13.665-12.795-34.83-12.795-34.83l-15.528,8.686Z" transform="translate(-497.875 -286.404)" opacity="0.05"/>
    <path id="パス_143" data-name="パス 143" d="M839.108,473.327c1.187,7.528-5.544,8.121-5.544,8.121s-30.307.593-33.872-.2-8.321,1.386-8.321,1.386c-6.142-3.764-1.187-13.072-1.187-13.072s12.678-.394,15.649-.973,18.023-1.4,18.023-1.4-1.187-7.329-9.113-25.945c-5.383-12.644-1.459-20.085,1.639-23.552A13.041,13.041,0,0,1,819.1,415.3l24.364,1.187a31.611,31.611,0,0,0,.136,3.681,39.208,39.208,0,0,0,3.234,12.158c-1.386,0-10.3,8.321-10.3,8.321S837.916,465.8,839.108,473.327Z" transform="translate(-465.787 -271.312)" fill="#3e3d77"/>
    <path id="パス_144" data-name="パス 144" d="M791.967,470.371s12.678-.394,15.65-.973,18.023-1.386,18.023-1.386-1.187-7.329-9.114-25.945c-5.383-12.644-1.459-20.085,1.639-23.552a13.042,13.042,0,0,1,2.719-2.393l22.575,1.1v-.705l-24.364-1.187a13.045,13.045,0,0,0-2.719,2.393c-3.083,3.472-7.022,10.908-1.639,23.552,7.946,18.6,9.123,25.93,9.123,25.93s-15.076.793-18.023,1.386-15.65.973-15.65.973-4.951,9.313,1.187,13.092c0,0,.185-.088.486-.214C787.78,478.244,791.967,470.371,791.967,470.371Z" transform="translate(-465.789 -271.328)" opacity="0.1"/>
    <rect id="長方形_4" data-name="長方形 4" width="12.279" height="31.095" transform="translate(350.144 71.289)" fill="#493545"/>
    <rect id="長方形_5" data-name="長方形 5" width="12.279" height="31.095" transform="translate(350.144 71.289)" opacity="0.1"/>
    <path id="パス_145" data-name="パス 145" d="M878.921,250.877c.423.117.9.131,1.187.715a4.375,4.375,0,0,1,.287,1.459l.773,9.61a5.349,5.349,0,0,0,.36,1.838c.326.652.866.729,1.289,1.148.851.846,1.1,2.967.866,4.693a30.835,30.835,0,0,1-1.284,4.766,44.881,44.881,0,0,1-2.028,6.638c-.929,1.887-2.616,2.918-3.706,1.332s-.943-4.785-1.148-7.407c-.34-4.377-2.047-8.151-2.164-12.557-.1-3.565.861-6.891,1.459-10.271.428-2.32.452-5.135,1.075-7.222C876.407,248.1,877.4,250.459,878.921,250.877Z" transform="translate(-509.476 -184.149)" fill="#493545"/>
    <path id="パス_146" data-name="パス 146" d="M878.921,250.877c.423.117.9.131,1.187.715a4.375,4.375,0,0,1,.287,1.459l.773,9.61a5.349,5.349,0,0,0,.36,1.838c.326.652.866.729,1.289,1.148.851.846,1.1,2.967.866,4.693a30.835,30.835,0,0,1-1.284,4.766,44.881,44.881,0,0,1-2.028,6.638c-.929,1.887-2.616,2.918-3.706,1.332s-.943-4.785-1.148-7.407c-.34-4.377-2.047-8.151-2.164-12.557-.1-3.565.861-6.891,1.459-10.271.428-2.32.452-5.135,1.075-7.222C876.407,248.1,877.4,250.459,878.921,250.877Z" transform="translate(-509.476 -184.149)" opacity="0.1"/>
    <path id="パス_147" data-name="パス 147" d="M763.608,212.831l-4.751,3.963s-.564-.661-1.405-1.731c-3.3-4.216-10.893-14.794-5.529-16.685s9.6,8.423,11.1,12.683C763.4,212.141,763.608,212.831,763.608,212.831Z" transform="translate(-446.144 -159.764)" fill="#c77485"/>
    <path id="パス_148" data-name="パス 148" d="M944.756,211.571c-1.979,2.971-4.751,0-4.751,0s-.355-.53-.856-1.386c-1.629-2.757-4.824-8.87-2.709-11.292,2.432-2.767,8.457,6.677,8.642,11.107A2.635,2.635,0,0,1,944.756,211.571Z" transform="translate(-541.526 -159.89)" fill="#c77485"/>
    <path id="パス_149" data-name="パス 149" d="M854.08,287.926s3.963,12.678,2.772,16.437,8.52,8.136,8.52,8.136h11.093s3.963-8.121,2.971-10.5-9.507-4.158-9.507-4.158-4.951,0-4.751-13.271Z" transform="translate(-499.579 -204.158)" fill="#c77485"/>
    <path id="パス_150" data-name="パス 150" d="M771.417,226.47l-4.751,3.963s-.564-.661-1.405-1.731c1.726-.306,4.406-2.825,5.578-4C771.212,225.78,771.417,226.47,771.417,226.47Z" transform="translate(-453.953 -173.403)" opacity="0.1"/>
    <path id="パス_151" data-name="パス 151" d="M948.357,223.815c-1.979,2.971-4.751,0-4.751,0s-.355-.53-.856-1.386l.063-.2c1.284.919,5.276.136,5.87,0a2.636,2.636,0,0,1-.326,1.585Z" transform="translate(-545.128 -172.134)" opacity="0.1"/>
    <path id="パス_152" data-name="パス 152" d="M873.233,420.153c-6.128,2.8-26.037-2.184-27.233-2.48a13.044,13.044,0,0,1,2.719-2.393l24.364,1.187A31.606,31.606,0,0,0,873.233,420.153Z" transform="translate(-495.428 -271.302)" opacity="0.1"/>
    <path id="パス_153" data-name="パス 153" d="M810.641,267.232s-4.751,1.585-11.487-4.557c0,0-15.076-14.857-16.048-18.422l-11.672-20.425s-4.951,5.349-6.935,4.557l13.072,22.779s2.378,4.377,4.557,5.544c0,0,16.243,20.8,16.437,24.958s7.319,15.295,7.319,15.295,2.378,18.023-1.785,21.193c0,0,23.173,5.943,28.123,1.979,0,0-2.179-22.37,0-24.758,0,0,6.735-7.922,2.179-16.637,0,0-.973-4.751,1.585-7.129S850.052,251.6,850.052,251.6s2.772-3.963,2.772-6.536c0,0,5.15-17.429,4.377-21.986,0,0-4.557.973-5.943,0,0,0-6.735,20.425-7.528,21.193s-6.322,16.836-13.665,18.621-8.515,2.573-8.515,2.573,14.259,8.914,7.329,12.873S810.641,267.232,810.641,267.232Z" transform="translate(-453.563 -172.571)" fill="#ffaac4"/>
    <path id="パス_154" data-name="パス 154" d="M865.87,291.8a37.844,37.844,0,0,1-.287-5.627l-11.093,3.365a14.962,14.962,0,0,1,.7,2.276c1.269.559,2.981,1.882,4.455,1.882A10.1,10.1,0,0,0,865.87,291.8Z" transform="translate(-499.79 -204.98)" opacity="0.1"/>
    <circle id="楕円形_12" data-name="楕円形 12" cx="10.3" cy="10.3" r="10.3" transform="translate(349.351 67.525)" fill="#c77485"/>
    <path id="パス_155" data-name="パス 155" d="M830.256,246.473c-2.266.175-4.795,1.741-4.669,4.012.068,1.25.924,2.305,1.3,3.5.9,2.894-1.1,5.8-2.864,8.267s-3.4,5.743-1.9,8.36a20.6,20.6,0,0,0,1.391,1.814c1.863,2.514,1.838,5.909,2.665,8.929a15.664,15.664,0,0,0,18.4,11.185,9.794,9.794,0,0,1-2.067-6.624c.112-1.731.671-3.54,0-5.14-.866-2.057-3.4-2.869-4.712-4.669s-1.221-4.294-.589-6.439,1.726-4.134,2.252-6.322a19.031,19.031,0,0,1,.486-1.892c.914-2.6,3.647-4.1,6.322-4.751s5.486-.686,8.1-1.537,5.15-2.845,5.452-5.583c-2.2.88-4.236-1.415-6.356-2.47-3.492-1.731-7.475-.1-11.073.3C838.295,247.869,834.4,246.171,830.256,246.473Z" transform="translate(-482.86 -184.516)" opacity="0.1"/>
    <path id="パス_156" data-name="パス 156" d="M829.846,245.663c-2.266.175-4.8,1.741-4.669,4.012.068,1.25.924,2.305,1.3,3.5.9,2.894-1.1,5.8-2.864,8.267s-3.4,5.743-1.9,8.36a20.622,20.622,0,0,0,1.391,1.814c1.863,2.514,1.838,5.909,2.665,8.929a15.664,15.664,0,0,0,18.4,11.185,9.794,9.794,0,0,1-2.067-6.624c.112-1.731.671-3.54,0-5.14-.866-2.057-3.4-2.869-4.712-4.669s-1.221-4.294-.588-6.439,1.726-4.134,2.252-6.322a19.032,19.032,0,0,1,.486-1.892c.914-2.6,3.647-4.1,6.322-4.751s5.486-.686,8.1-1.537,5.15-2.845,5.452-5.583c-2.2.88-4.236-1.415-6.356-2.47-3.492-1.731-7.475-.1-11.073.3C837.894,247.054,834.018,245.337,829.846,245.663Z" transform="translate(-482.649 -184.1)" fill="#493545"/>
    <path id="パス_157" data-name="パス 157" d="M885.65,326.3s4.124,3.681,4.936,5.306" transform="translate(-515.796 -225.594)" opacity="0.1"/>
    <path id="パス_158" data-name="パス 158" d="M887.47,371.51a44.353,44.353,0,0,0-7.528.593c-2.378.593-8.121,0-8.121,0" transform="translate(-508.692 -248.818)" opacity="0.1"/>
    <g id="グループ_5" data-name="グループ 5" transform="translate(310.932 50.494)" opacity="0.1">
      <path id="パス_159" data-name="パス 159" d="M889.109,323.083a4.952,4.952,0,0,1-1.425.545,5.447,5.447,0,0,0,3.8-.545c6.935-3.963-7.329-12.873-7.329-12.873H881.78S896.044,319.124,889.109,323.083Z" transform="translate(-824.74 -267.823)"/>
      <path id="パス_160" data-name="パス 160" d="M952.534,223.41a2.072,2.072,0,0,0-.049-.36,23.266,23.266,0,0,1-2.466.374,10.922,10.922,0,0,0,2.514-.015Z" transform="translate(-859.795 -223.05)"/>
      <path id="パス_161" data-name="パス 161" d="M806.478,323.775c4.158-3.171,1.785-21.193,1.785-21.193s-7.129-11.093-7.329-15.251S784.5,262.373,784.5,262.373c-2.179-1.187-4.557-5.544-4.557-5.544s-13.471-21.986-15.45-22.779l13.072,22.779s2.378,4.377,4.557,5.544c0,0,16.243,20.8,16.437,24.958S805.88,302.6,805.88,302.6s2.378,18.023-1.785,21.193c0,0,14.244,3.652,22.784,3.322C818.32,326.809,806.478,323.775,806.478,323.775Z" transform="translate(-764.49 -228.701)"/>
      <path id="パス_162" data-name="パス 162" d="M859.06,314.031l-.117-.151a3.125,3.125,0,0,1-.413.092C858.715,314,858.89,314.016,859.06,314.031Z" transform="translate(-812.797 -269.708)"/>
    </g>
    <g id="グループ_6" data-name="グループ 6" transform="translate(378.471 50.47)" opacity="0.1">
      <path id="パス_163" data-name="パス 163" d="M930.625,223l-.122.024c-.209,6.084-4.43,20.376-4.43,20.376,0,2.573-2.772,6.536-2.772,6.536s-11.487,17.629-14.064,20.007-1.585,7.129-1.585,7.129l.024.049c-.078-1.6.117-4.08,1.756-5.6C912,269.146,923.5,251.517,923.5,251.517s2.772-3.963,2.772-6.536C926.268,245.01,931.418,227.581,930.625,223Z" transform="translate(-905.473 -223)"/>
      <path id="パス_164" data-name="パス 164" d="M903.37,356.651c.3,1.683.1-.1.2,1.585,0,0,4.863-5.7,3.536-12.756C907.5,351.783,903.37,356.651,903.37,356.651Z" transform="translate(-903.37 -285.917)"/>
    </g>
    <ellipse id="楕円形_13" data-name="楕円形 13" cx="207.981" cy="19.978" rx="207.981" ry="19.978" transform="translate(20.473 281.76)" fill="#f9a826" opacity="0.1"/>
    <path id="パス_165" data-name="パス 165" d="M426.165,616.919s-7.081-24.048,1.328-41.745a37.981,37.981,0,0,0,3.074-23.829,63.877,63.877,0,0,0-3.375-11.185" transform="translate(-278.332 -335.451)" fill="none" stroke="#535461" stroke-miterlimit="10" stroke-width="2"/>
    <path id="パス_166" data-name="パス 166" d="M430.683,511.112c0,2.947-5.349,11.492-5.349,11.492s-5.349-8.545-5.349-11.492a5.349,5.349,0,1,1,10.67,0Z" transform="translate(-276.582 -317.579)" fill="#f9a826"/>
    <path id="パス_167" data-name="パス 167" d="M448.783,541.693c-1.6,2.475-10.723,6.745-10.723,6.745s.165-10.071,1.765-12.547a5.349,5.349,0,1,1,8.958,5.8Z" transform="translate(-285.874 -331.839)" fill="#f9a826"/>
    <path id="パス_168" data-name="パス 168" d="M445.964,597.236c-2.631,1.328-12.644.409-12.644.409s5.228-8.613,7.859-9.94a5.349,5.349,0,1,1,4.8,9.527Z" transform="translate(-283.44 -359.482)" fill="#f9a826"/>
    <path id="パス_169" data-name="パス 169" d="M435.836,641.481c-2.368,1.751-12.416,2.543-12.416,2.543s3.7-9.371,6.069-11.127a5.349,5.349,0,0,1,6.322,8.578Z" transform="translate(-278.354 -382.69)" fill="#f9a826"/>
    <path id="パス_170" data-name="パス 170" d="M412.987,555.816C415.1,557.868,424.95,560,424.95,560s-2.432-9.78-4.528-11.837a5.349,5.349,0,1,0-7.436,7.655Z" transform="translate(-272.016 -338.643)" fill="#f9a826"/>
    <path id="パス_171" data-name="パス 171" d="M400.787,606.074c2.631,1.328,12.644.409,12.644.409s-5.208-8.613-7.839-9.916a5.349,5.349,0,0,0-4.8,9.527Z" transform="translate(-265.394 -364.216)" fill="#f9a826"/>
    <path id="パス_172" data-name="パス 172" d="M396.439,656.925c2.368,1.751,12.416,2.543,12.416,2.543s-3.7-9.371-6.069-11.127a5.349,5.349,0,1,0-6.322,8.579Z" transform="translate(-263.186 -390.333)" fill="#f9a826"/>
    <path id="パス_173" data-name="パス 173" d="M430.683,511.112c0,2.947-5.349,11.492-5.349,11.492s-5.349-8.545-5.349-11.492a5.349,5.349,0,1,1,10.67,0Z" transform="translate(-276.582 -317.579)" fill="#f9a826" opacity="0.1"/>
    <path id="パス_174" data-name="パス 174" d="M448.783,541.693c-1.6,2.475-10.723,6.745-10.723,6.745s.165-10.071,1.765-12.547a5.349,5.349,0,1,1,8.958,5.8Z" transform="translate(-285.874 -331.839)" fill="#f9a826" opacity="0.1"/>
    <path id="パス_175" data-name="パス 175" d="M445.964,597.236c-2.631,1.328-12.644.409-12.644.409s5.228-8.613,7.859-9.94a5.349,5.349,0,1,1,4.8,9.527Z" transform="translate(-283.44 -359.482)" fill="#f9a826" opacity="0.1"/>
    <path id="パス_176" data-name="パス 176" d="M435.836,641.481c-2.368,1.751-12.416,2.543-12.416,2.543s3.7-9.371,6.069-11.127a5.349,5.349,0,0,1,6.322,8.578Z" transform="translate(-278.354 -382.69)" fill="#f9a826" opacity="0.1"/>
    <path id="パス_177" data-name="パス 177" d="M412.987,555.816C415.1,557.868,424.95,560,424.95,560s-2.432-9.78-4.528-11.837a5.349,5.349,0,1,0-7.436,7.655Z" transform="translate(-272.016 -338.643)" fill="#f9a826" opacity="0.1"/>
    <path id="パス_178" data-name="パス 178" d="M400.787,606.074c2.631,1.328,12.644.409,12.644.409s-5.208-8.613-7.839-9.916a5.349,5.349,0,0,0-4.8,9.527Z" transform="translate(-265.394 -364.216)" fill="#f9a826" opacity="0.1"/>
    <path id="パス_179" data-name="パス 179" d="M396.439,656.925c2.368,1.751,12.416,2.543,12.416,2.543s-3.7-9.371-6.069-11.127a5.349,5.349,0,1,0-6.322,8.579Z" transform="translate(-263.186 -390.333)" fill="#f9a826" opacity="0.1"/>
    <path id="パス_180" data-name="パス 180" d="M720.805,617.629s-7.081-24.048,1.328-41.745a37.981,37.981,0,0,0,3.073-23.829,63.87,63.87,0,0,0-3.375-11.185" transform="translate(-429.685 -335.816)" fill="none" stroke="#535461" stroke-miterlimit="10" stroke-width="2"/>
    <path id="パス_181" data-name="パス 181" d="M725.319,512.646c0,2.947-5.349,11.492-5.349,11.492s-5.349-8.544-5.349-11.492a5.349,5.349,0,0,1,10.67,0Z" transform="translate(-427.94 -318.773)" fill="#f9a826"/>
    <path id="パス_182" data-name="パス 182" d="M743.433,542.393c-1.6,2.475-10.723,6.745-10.723,6.745s.165-10.072,1.765-12.547a5.349,5.349,0,1,1,8.958,5.8Z" transform="translate(-437.233 -332.198)" fill="#f9a826"/>
    <path id="パス_183" data-name="パス 183" d="M740.644,597.925c-2.631,1.328-12.644.409-12.644.409s5.228-8.613,7.859-9.94a5.349,5.349,0,1,1,4.785,9.532Z" transform="translate(-434.813 -359.831)" fill="#f9a826"/>
    <path id="パス_184" data-name="パス 184" d="M730.476,642.181c-2.368,1.751-12.416,2.543-12.416,2.543s3.7-9.371,6.069-11.127a5.349,5.349,0,0,1,6.322,8.579Z" transform="translate(-429.707 -383.049)" fill="#f9a826"/>
    <path id="パス_185" data-name="パス 185" d="M707.647,556.515c2.115,2.052,11.963,4.182,11.963,4.182s-2.432-9.78-4.528-11.837a5.349,5.349,0,1,0-7.436,7.655Z" transform="translate(-423.379 -339.002)" fill="#f9a826"/>
    <path id="パス_186" data-name="パス 186" d="M695.407,606.749c2.631,1.328,12.644.409,12.644.409s-5.228-8.613-7.859-9.94a5.349,5.349,0,0,0-4.8,9.527Z" transform="translate(-416.727 -364.55)" fill="#f9a826"/>
    <path id="パス_187" data-name="パス 187" d="M691.9,658.221c2.368,1.751,12.416,2.543,12.416,2.543s-3.7-9.371-6.069-11.127a5.349,5.349,0,0,0-6.322,8.579Z" transform="translate(-415.353 -391.289)" fill="#f9a826"/>
    <path id="パス_188" data-name="パス 188" d="M725.319,512.646c0,2.947-5.349,11.492-5.349,11.492s-5.349-8.544-5.349-11.492a5.349,5.349,0,0,1,10.67,0Z" transform="translate(-427.94 -318.773)" fill="#f9a826" opacity="0.1"/>
    <path id="パス_189" data-name="パス 189" d="M743.433,542.393c-1.6,2.475-10.723,6.745-10.723,6.745s.165-10.072,1.765-12.547a5.349,5.349,0,1,1,8.958,5.8Z" transform="translate(-437.233 -332.198)" fill="#f9a826" opacity="0.1"/>
    <path id="パス_190" data-name="パス 190" d="M740.644,597.925c-2.631,1.328-12.644.409-12.644.409s5.228-8.613,7.859-9.94a5.349,5.349,0,1,1,4.785,9.532Z" transform="translate(-434.813 -359.831)" fill="#f9a826" opacity="0.1"/>
    <path id="パス_191" data-name="パス 191" d="M730.476,642.181c-2.368,1.751-12.416,2.543-12.416,2.543s3.7-9.371,6.069-11.127a5.349,5.349,0,0,1,6.322,8.579Z" transform="translate(-429.707 -383.049)" fill="#f9a826" opacity="0.1"/>
    <path id="パス_192" data-name="パス 192" d="M707.647,556.515c2.115,2.052,11.963,4.182,11.963,4.182s-2.432-9.78-4.528-11.837a5.349,5.349,0,1,0-7.436,7.655Z" transform="translate(-423.379 -339.002)" fill="#f9a826" opacity="0.1"/>
    <path id="パス_193" data-name="パス 193" d="M695.407,606.749c2.631,1.328,12.644.409,12.644.409s-5.228-8.613-7.859-9.94a5.349,5.349,0,0,0-4.8,9.527Z" transform="translate(-416.727 -364.55)" fill="#f9a826" opacity="0.1"/>
    <path id="パス_194" data-name="パス 194" d="M691.9,658.221c2.368,1.751,12.416,2.543,12.416,2.543s-3.7-9.371-6.069-11.127a5.349,5.349,0,0,0-6.322,8.579Z" transform="translate(-415.353 -391.289)" fill="#f9a826" opacity="0.1"/>
    <path id="パス_195" data-name="パス 195" d="M761.96,130.032h-3.054a2.14,2.14,0,1,0,0-4.275H734.143a2.14,2.14,0,0,0,0,4.275H737.2a2.14,2.14,0,0,0,0,4.275h-4.275a2.14,2.14,0,1,0,0,4.275h24.744a2.14,2.14,0,1,0,0-4.275h4.294a2.14,2.14,0,0,0,0-4.275Z" transform="translate(-436.19 -122.576)" fill="#dee3f3" opacity="0.5"/>
    <path id="パス_196" data-name="パス 196" d="M475.639,156.751h-2.325a1.629,1.629,0,1,0,0-3.253h-18.83a1.629,1.629,0,0,0,0,3.253h2.325a1.629,1.629,0,1,0,0,3.253h-3.253a1.629,1.629,0,1,0,0,3.253h18.83a1.629,1.629,0,1,0,0-3.253h3.253a1.629,1.629,0,0,0,0-3.253Z" transform="translate(-292.952 -136.826)" fill="#dee3f3" opacity="0.5"/>
    <path id="パス_197" data-name="パス 197" d="M174.353,634s8.51,16.7,1.576,25.843.632,34.042.632,34.042" transform="translate(-149.718 -383.656)" fill="none" stroke="#f9a826" stroke-miterlimit="10" stroke-width="1"/>
    <path id="パス_198" data-name="パス 198" d="M176.007,617.1a9.843,9.843,0,0,1-2.363,5.836,8.386,8.386,0,0,1,0-11.672A9.843,9.843,0,0,1,176.007,617.1Z" transform="translate(-148.833 -371.974)" fill="#f9a826"/>
    <path id="パス_199" data-name="パス 199" d="M180.312,634s-8.51,16.7-1.576,25.843-.632,34.042-.632,34.042" transform="translate(-151.265 -383.656)" fill="none" stroke="#f9a826" stroke-miterlimit="10" stroke-width="1"/>
    <path id="パス_200" data-name="パス 200" d="M179.67,617.1a9.843,9.843,0,0,0,2.363,5.836,8.386,8.386,0,0,0,0-11.672A9.843,9.843,0,0,0,179.67,617.1Z" transform="translate(-153.142 -371.974)" fill="#f9a826"/>
    <path id="パス_201" data-name="パス 201" d="M179.67,617.1a9.843,9.843,0,0,0,2.363,5.836,8.386,8.386,0,0,0,0-11.672A9.843,9.843,0,0,0,179.67,617.1Z" transform="translate(-153.142 -371.974)" opacity="0.1"/>
    <path id="パス_202" data-name="パス 202" d="M190.573,634s8.51,16.7,1.576,25.843.632,34.042.632,34.042" transform="translate(-158.05 -383.656)" fill="none" stroke="#f9a826" stroke-miterlimit="10" stroke-width="1"/>
    <path id="パス_203" data-name="パス 203" d="M192.177,617.1a9.843,9.843,0,0,1-2.363,5.836,8.386,8.386,0,0,1,0-11.672A9.843,9.843,0,0,1,192.177,617.1Z" transform="translate(-157.139 -371.974)" fill="#f9a826"/>
    <path id="パス_204" data-name="パス 204" d="M188.368,644.616a9.826,9.826,0,0,1-5.748,2.563,8.373,8.373,0,0,1,8.087-8.4A9.929,9.929,0,0,1,188.368,644.616Z" transform="translate(-154.658 -386.111)" fill="#f9a826"/>
    <path id="パス_205" data-name="パス 205" d="M188.828,668.316a9.826,9.826,0,0,1-5.748,2.563,8.373,8.373,0,0,1,8.087-8.4A9.819,9.819,0,0,1,188.828,668.316Z" transform="translate(-154.894 -398.286)" fill="#f9a826"/>
    <path id="パス_206" data-name="パス 206" d="M164.077,684.495a9.821,9.821,0,0,1,2.038,5.953,8.376,8.376,0,0,1-7.645-8.807A9.822,9.822,0,0,1,164.077,684.495Z" transform="translate(-142.252 -408.128)" fill="#f9a826"/>
    <path id="パス_207" data-name="パス 207" d="M167.486,635.6a9.823,9.823,0,0,1,3.555,5.194,8.372,8.372,0,0,1-9.721-6.444A9.724,9.724,0,0,1,167.486,635.6Z" transform="translate(-143.716 -383.796)" fill="#f9a826"/>
    <path id="パス_208" data-name="パス 208" d="M167.486,635.6a9.823,9.823,0,0,1,3.555,5.194,8.372,8.372,0,0,1-9.721-6.444A9.724,9.724,0,0,1,167.486,635.6Z" transform="translate(-143.716 -383.796)" opacity="0.1"/>
    <path id="パス_209" data-name="パス 209" d="M196.512,634s-8.51,16.7-1.576,25.843-.632,34.042-.632,34.042" transform="translate(-159.587 -383.656)" fill="none" stroke="#f9a826" stroke-miterlimit="10" stroke-width="1"/>
    <path id="パス_210" data-name="パス 210" d="M195.87,617.1a9.843,9.843,0,0,0,2.363,5.836,8.386,8.386,0,0,0,0-11.672A9.843,9.843,0,0,0,195.87,617.1Z" transform="translate(-161.464 -371.974)" fill="#f9a826"/>
    <path id="パス_211" data-name="パス 211" d="M195.87,617.1a9.843,9.843,0,0,0,2.363,5.836,8.386,8.386,0,0,0,0-11.672A9.843,9.843,0,0,0,195.87,617.1Z" transform="translate(-161.464 -371.974)" opacity="0.1"/>
    <path id="パス_212" data-name="パス 212" d="M194.7,648.655a9.959,9.959,0,0,0-2.432,5.836A9.812,9.812,0,0,0,198.047,652a9.959,9.959,0,0,0,2.432-5.836A9.813,9.813,0,0,0,194.7,648.655Z" transform="translate(-159.615 -389.902)" fill="#f9a826"/>
    <path id="パス_213" data-name="パス 213" d="M194.7,648.655a9.959,9.959,0,0,0-2.432,5.836A9.812,9.812,0,0,0,198.047,652a9.959,9.959,0,0,0,2.432-5.836A9.813,9.813,0,0,0,194.7,648.655Z" transform="translate(-159.615 -389.902)" opacity="0.1"/>
    <path id="パス_214" data-name="パス 214" d="M203.812,681.465a9.959,9.959,0,0,0-2.432,5.836,9.813,9.813,0,0,0,5.777-2.495,9.959,9.959,0,0,0,2.432-5.836A9.781,9.781,0,0,0,203.812,681.465Z" transform="translate(-164.295 -406.756)" fill="#f9a826"/>
    <path id="パス_215" data-name="パス 215" d="M193,668.157s5.121-8.073,12.313-8.267" transform="translate(-159.99 -396.955)" fill="none" stroke="#f9a826" stroke-miterlimit="10" stroke-width="1"/>
    <path id="パス_216" data-name="パス 216" d="M171.763,658.127s-5.121-8.073-12.313-8.267" transform="translate(-142.756 -391.803)" fill="none" stroke="#f9a826" stroke-miterlimit="10" stroke-width="1"/>
    <path id="パス_217" data-name="パス 217" d="M183.4,681.827s5.121-8.073,12.313-8.267" transform="translate(-155.059 -403.977)" fill="none" stroke="#f9a826" stroke-miterlimit="10" stroke-width="1"/>
    <circle id="楕円形_14" data-name="楕円形 14" cx="1.328" cy="1.328" r="1.328" transform="translate(43.748 261.563)" fill="#f9a826"/>
    <circle id="楕円形_15" data-name="楕円形 15" cx="1.328" cy="1.328" r="1.328" transform="translate(15.493 256.798)" fill="#f9a826"/>
    <path id="パス_218" data-name="パス 218" d="M178.143,687.267s-5.121-8.073-12.313-8.267" transform="translate(-146.033 -406.772)" fill="none" stroke="#f9a826" stroke-miterlimit="10" stroke-width="1"/>
    <circle id="楕円形_16" data-name="楕円形 16" cx="1.328" cy="1.328" r="1.328" transform="translate(18.596 270.978)" fill="#f9a826"/>
    <circle id="楕円形_17" data-name="楕円形 17" cx="1.328" cy="1.328" r="1.328" transform="translate(39.424 268.323)" fill="#f9a826"/>
    <path id="パス_219" data-name="パス 219" d="M198.186,724.341s-12.343-2.47-15.64-5.763-18.1-9.05-19.749-4.936-22.22,18.105-8.228,20.576,32.918,3.292,37.033,1.644S198.186,724.341,198.186,724.341Z" transform="translate(-137.757 -423.834)" fill="#a8a8a8"/>
    <path id="パス_220" data-name="パス 220" d="M154.574,745.4c13.991,2.47,32.918,3.292,37.033,1.644,3.132-1.255,5.311-7.295,6.171-10.076l.413.088s-2.47,9.877-6.585,11.521-23.041.822-37.033-1.644c-4.036-.715-5.194-2.388-4.756-4.5C150.159,743.793,151.569,744.873,154.574,745.4Z" transform="translate(-137.763 -436.55)" opacity="0.2"/>
    <path id="パス_221" data-name="パス 221" d="M1008.088,641.78s4.075,5.349-1.882,13.374-10.869,14.837-8.88,19.856c0,0,8.987-14.944,16.3-15.154S1016.136,650.762,1008.088,641.78Z" transform="translate(-572.932 -387.652)" fill="#f9a826"/>
    <path id="パス_222" data-name="パス 222" d="M1008.331,641.78a6.6,6.6,0,0,1,.832,1.673c7.139,8.384,10.937,16.209,4.08,16.408-6.39.185-14.054,11.608-15.893,14.5a6.19,6.19,0,0,0,.219.656s8.987-14.944,16.3-15.153S1016.379,650.762,1008.331,641.78Z" transform="translate(-573.175 -387.652)" opacity="0.1"/>
    <path id="パス_223" data-name="パス 223" d="M1034.483,654.481c0,1.877-.209,3.4-.486,3.4s-.486-1.522-.486-3.4.263-.973.52-.973S1034.483,652.608,1034.483,654.481Z" transform="translate(-591.75 -393.564)" fill="#ffd037"/>
    <path id="パス_224" data-name="パス 224" d="M1037.466,658.994c-1.649.9-3.083,1.459-3.2,1.211s1.109-1.143,2.757-2.038,1-.243,1.123,0S1039.11,658.094,1037.466,658.994Z" transform="translate(-592.132 -395.835)" fill="#ffd037"/>
    <path id="パス_225" data-name="パス 225" d="M966.009,641.78s-4.075,5.349,1.882,13.374,10.869,14.837,8.88,19.856c0,0-8.987-14.944-16.3-15.154S957.96,650.762,966.009,641.78Z" transform="translate(-552.377 -387.652)" fill="#f9a826"/>
    <path id="パス_226" data-name="パス 226" d="M966.009,641.78a6.6,6.6,0,0,0-.832,1.673c-7.139,8.384-10.937,16.209-4.08,16.408,6.39.185,14.054,11.608,15.893,14.5a6.19,6.19,0,0,1-.219.656s-8.987-14.944-16.3-15.153S957.96,650.762,966.009,641.78Z" transform="translate(-552.377 -387.652)" opacity="0.1"/>
    <path id="パス_227" data-name="パス 227" d="M960.09,654.481c0,1.877.209,3.4.486,3.4s.486-1.522.486-3.4-.263-.973-.52-.973S960.09,652.608,960.09,654.481Z" transform="translate(-554.035 -393.564)" fill="#ffd037"/>
    <path id="パス_228" data-name="パス 228" d="M953.678,658.994c1.649.9,3.083,1.459,3.2,1.211s-1.109-1.143-2.757-2.038-1-.243-1.123,0S952.03,658.094,953.678,658.994Z" transform="translate(-550.225 -395.835)" fill="#ffd037"/>
    <path id="パス_229" data-name="パス 229" d="M962.76,702.169s11.394-.35,14.828-2.8,17.507-5.349,18.378-1.459,17.123,19.506,4.26,19.608-29.889-2-33.317-4.09S962.76,702.169,962.76,702.169Z" transform="translate(-555.407 -415.512)" fill="#a8a8a8"/>
    <path id="パス_230" data-name="パス 230" d="M1000.454,722.666c-12.863.1-29.889-2-33.317-4.09-2.612-1.59-3.652-7.295-4-9.926h-.379s.72,9.191,4.148,11.278,20.454,4.2,33.317,4.09c3.715-.029,4.995-1.352,4.926-3.307C1004.636,721.9,1003.241,722.641,1000.454,722.666Z" transform="translate(-555.407 -422.003)" opacity="0.2"/>
    <path id="パス_231" data-name="パス 231" d="M270.136,189.362h-3.054a2.14,2.14,0,1,0,0-4.275H242.338a2.14,2.14,0,0,0,0,4.275h3.054a2.14,2.14,0,0,0,0,4.275h-4.275a2.14,2.14,0,0,0,0,4.275h24.744a2.14,2.14,0,1,0,0-4.275h4.275a2.14,2.14,0,0,0,0-4.275Z" transform="translate(-183.661 -153.053)" fill="#dee3f3" opacity="0.5"/>
  </g>
</svg>
