<svg id="レイヤー_3" data-name="レイヤー 3" viewBox="0 0 44.55 59.25">
  <defs>
    <style dangerouslySetInnerHTML={{__html: "\n      .cls-1{fill:#fefefe;}.cls-2{fill:#040404;}.cls-3{fill:#060606;}.cls-4{fill:#050505;}.cls-5{fill:#0b0b0b;}.cls-6{fill:#0c0c0c;}.cls-7{fill:#151515;}.cls-8{fill:#131313;}.cls-9{fill:#121212;}.cls-10{fill:#0e0e0e;}.cls-11{fill:#212121;}.cls-12{fill:#636363;}.cls-13{fill:#111;}.cls-14{fill:#464646;}.cls-15{fill:#242424;}.cls-16{fill:#454545;}.cls-17{fill:#272727;}.cls-18{fill:#1f1f1f;}.cls-19{fill:#424242;}.cls-20{fill:#4b4b4b;}.cls-21{fill:#393939;}.cls-22{fill:#2d2d2d;}.cls-23{fill:#4f4f4f;}.cls-24{fill:#333;}.cls-25{fill:#232323;}.cls-26{fill:#2f2f2f;}.cls-27{fill:#292929;}.cls-28{fill:#343434;}.cls-29{fill:#5f5f5f;}.cls-30{fill:#7c7c7c;}.cls-31{fill:#565656;}.cls-32{fill:#4e4e4e;}.cls-33{fill:#5b5b5b;}.cls-34{fill:#535353;}.cls-35{fill:#3a3a3a;}.cls-36{fill:#848484;}.cls-37{fill:#6d6d6d;}.cls-38{fill:#555;}.cls-39{fill:#868686;}\n    " }} />
  </defs>
  <path className="cls-1" d="M.12,29.65Q.12,15.06.11.47C.11.09.19,0,.56,0H44.21c.38,0,.45.07.45.45q0,29.18,0,58.35c0,.38-.07.45-.45.45q-21.83,0-43.65,0c-.37,0-.45-.07-.45-.45Q.13,44.24.12,29.65Z" transform="translate(-0.11 -0.02)" />
  <path className="cls-2" d="M34.47,10.76a8.93,8.93,0,0,1,1.61,4.29,29.44,29.44,0,0,1,.27,6.7,8.26,8.26,0,0,1-.74,2.48l.4-.33a.1.1,0,0,1,.16,0A20.85,20.85,0,0,1,28.08,30a10.5,10.5,0,0,1-4.55,1.09,14.86,14.86,0,0,1-2.83,0c0-.26.24-.15.37-.15.6,0,1.21,0,1.81,0,3.37.08,6.07-1.65,8.82-3.24a8.72,8.72,0,0,0,3.65-3.88A5.75,5.75,0,0,0,36,21.56a29,29,0,0,0-.61-8.2,10.6,10.6,0,0,0-1-2.46C34.31,10.78,34.37,10.75,34.47,10.76Z" transform="translate(-0.11 -0.02)" />
  <path className="cls-3" d="M33.29,33.11a124,124,0,0,1-2,15.37A20.24,20.24,0,0,1,29,54c-.08.14-.15.29-.24.43-.26.39-.39.83-.92,1.08s-.64.77-1,1.17A1.29,1.29,0,0,1,25,56.7c1.26.54,1.71-.36,2.37-1.1C30,52.7,31,49.16,31.55,45.41c.42-2.7.81-5.4,1.12-8.11.16-1.44.16-2.89.39-4.32,0-.07.11-.15.2-.1S33.33,33,33.29,33.11Z" transform="translate(-0.11 -0.02)" />
  <path className="cls-4" d="M12.25,38.9a46.55,46.55,0,0,0,1.12,9.42,40,40,0,0,0,2.4,7.53,1.73,1.73,0,0,0,.63.89c-.4.14-.5-.11-.62-.28a9.59,9.59,0,0,1-1.19-2.63,56.82,56.82,0,0,1-1.92-7.16A50.05,50.05,0,0,1,12,40.09c0-1.24,0-2.47.05-3.71.29.07.13.3.14.45C12.24,37.52,12.16,38.21,12.25,38.9Z" transform="translate(-0.11 -0.02)" />
  <path className="cls-5" d="M16.54,23.78A33.9,33.9,0,0,0,20.71,25a1.43,1.43,0,0,0,.74,0,38.51,38.51,0,0,0,7.88-3.42.9.9,0,0,1,.58-.16,3.41,3.41,0,0,1-1,.69,36.61,36.61,0,0,1-7.46,3.17,1.37,1.37,0,0,1-.75,0,22.5,22.5,0,0,1-4.39-1.42C16.31,23.69,16.42,23.73,16.54,23.78Z" transform="translate(-0.11 -0.02)" />
  <path className="cls-6" d="M29,2.45A3.71,3.71,0,0,1,33.45,7a3.14,3.14,0,0,1-.78,1.77c-.13-.19,0-.34.06-.49a7,7,0,0,0,.47-2.17,3.35,3.35,0,0,0-3.45-3.56h-.49C29.15,2.58,29,2.66,29,2.45Z" transform="translate(-0.11 -0.02)" />
  <path className="cls-5" d="M4.94,26.41c1.13.9,2.1,2,3.15,2.94a12.18,12.18,0,0,0,2.48,1.86c.06,0,.14.06.12.18A3.1,3.1,0,0,1,9,30.56a31,31,0,0,1-3.15-3l-1-1C4.8,26.42,4.83,26.38,4.94,26.41Z" transform="translate(-0.11 -0.02)" />
  <path className="cls-3" d="M16.54,15.77a1.1,1.1,0,0,1,.71-1,.81.81,0,0,1,.95.16c.08.07.23.09.15.23-.28.44-.48.94-1,1.19S16.5,16.33,16.54,15.77Z" transform="translate(-0.11 -0.02)" />
  <path className="cls-2" d="M26.27,14.37a1.21,1.21,0,0,1,1.18,1.05.51.51,0,0,1-.51.53,1.36,1.36,0,0,1-1.24-1.21C25.71,14.32,26,14.36,26.27,14.37Z" transform="translate(-0.11 -0.02)" />
  <path className="cls-7" d="M19.28,6.73a26.69,26.69,0,0,1,4.29-.34c.94,0,1.89,0,2.84,0,.22,0,.48-.07.62.23-2.41,0-4.8.09-7.2.25C19.64,6.84,19.42,7,19.28,6.73Z" transform="translate(-0.11 -0.02)" />
  <path className="cls-8" d="M42,21a5.8,5.8,0,0,1-.11,2.65,4,4,0,0,1-1.83,2.55,10.5,10.5,0,0,0-1,.73.76.76,0,0,1-.57.19A12.26,12.26,0,0,1,39.83,26a4.55,4.55,0,0,0,2.06-3.93c0-.22,0-.44,0-.66S41.74,21.05,42,21Z" transform="translate(-0.11 -0.02)" />
  <path className="cls-9" d="M3.61,20.59c0-.27.17-.33.44-.27a3.78,3.78,0,0,1,1.79,1.15c.83.81,1.59,1.7,2.48,2.45.1,0,.15.09.11.18s-.08,0-.12,0a12.26,12.26,0,0,1-2.17-2,7.44,7.44,0,0,0-1.82-1.53c-.26-.15-.52-.24-.6.19C3.51,20.82,3.58,20.7,3.61,20.59Z" transform="translate(-0.11 -0.02)" />
  <path className="cls-10" d="M19.61,48.87l5.3-.49a14.43,14.43,0,0,1-5.29.67Z" transform="translate(-0.11 -0.02)" />
  <path className="cls-8" d="M24.7,51.31c0,.81,0,1.62,0,2.44a5.46,5.46,0,0,0,.15,2.57.13.13,0,0,1,0,.18.19.19,0,0,1-.28-.09,2.18,2.18,0,0,1-.22-1A35.11,35.11,0,0,1,24.7,51.31Z" transform="translate(-0.11 -0.02)" />
  <path className="cls-11" d="M37,28.17c-1,1.27-2.25,2.31-3.33,3.6,0-.59,1.5-2.27,3.21-3.72Q37,28,37,28.17Z" transform="translate(-0.11 -0.02)" />
  <path className="cls-12" d="M15.84,30.38a5.75,5.75,0,0,1-2.38-1.12,15.42,15.42,0,0,1-3.05-2.41.13.13,0,0,1,.11-.11,23.1,23.1,0,0,0,4,2.93,5.81,5.81,0,0,0,1.51.6C16,30.38,16,30.42,15.84,30.38Z" transform="translate(-0.11 -0.02)" />
  <path className="cls-13" d="M21.15,21.16c-.2-.09-.56.11-.57-.31s.43-.62.88-.65.72.29.68.44C22,21.05,21.55,21.09,21.15,21.16Z" transform="translate(-0.11 -0.02)" />
  <path className="cls-14" d="M15,3.4a1.93,1.93,0,0,0-2,1.1,6.62,6.62,0,0,0-.88,3.22,3.27,3.27,0,0,1,0,.54,4.63,4.63,0,0,1,0-2,4.75,4.75,0,0,1,1.26-2.49,1.65,1.65,0,0,1,1.84-.44C15.2,3.4,15.08,3.34,15,3.4Z" transform="translate(-0.11 -0.02)" />
  <path className="cls-15" d="M36.17,23.91H36a26.49,26.49,0,0,1,4-3.83c.18-.13.37-.32.67-.19a25.16,25.16,0,0,0-4.25,3.79A3.22,3.22,0,0,1,36.17,23.91Z" transform="translate(-0.11 -0.02)" />
  <path className="cls-16" d="M10.52,26.74l-.11.11a7.74,7.74,0,0,1-1.19-1.6,4.11,4.11,0,0,0-.91-1.12c.14-.06,0-.14,0-.21.25-.11,0-.24,0-.34a6.51,6.51,0,0,1-.42-1.22c0-.05,0-.12.11-.14A14.51,14.51,0,0,0,10.52,26.74Z" transform="translate(-0.11 -0.02)" />
  <path className="cls-17" d="M12.25,38.9a8.12,8.12,0,0,1-.1-1.84c0-.22.08-.47-.09-.68,0-.8.07-1.6,0-2.39,0-.14-.06-.26.14-.25a2.7,2.7,0,0,1,.17,1.53C12.21,36.48,12.33,37.69,12.25,38.9Z" transform="translate(-0.11 -0.02)" />
  <path className="cls-18" d="M8.85,14.8A6,6,0,0,1,9.75,13c.36-.55.74-1.1,1.11-1.66.2,0,.15.13.12.25a24.08,24.08,0,0,0-2,3.25S8.89,14.85,8.85,14.8Z" transform="translate(-0.11 -0.02)" />
  <path className="cls-19" d="M8.85,14.8H9A19.51,19.51,0,0,0,7.91,19c-.13-.09,0-.25-.11-.35A11,11,0,0,1,8.85,14.8Z" transform="translate(-0.11 -0.02)" />
  <path className="cls-20" d="M22.88,30.92a6.65,6.65,0,0,1-1.67.12c-.17,0-.36-.09-.51.08a24.89,24.89,0,0,1-2.85-.34c0-.2.12-.15.23-.1A35,35,0,0,0,22.88,30.92Z" transform="translate(-0.11 -0.02)" />
  <path className="cls-21" d="M15,3.4l.24-.1a2.27,2.27,0,0,1,1.14,3.17C16.44,5.15,16.56,3.87,15,3.4Z" transform="translate(-0.11 -0.02)" />
  <path className="cls-20" d="M29,2.45l.25.12c-.54.11-.74.53-.9,1a11.8,11.8,0,0,0-.5,2.27,4.92,4.92,0,0,1,.61-3A.62.62,0,0,1,29,2.45Z" transform="translate(-0.11 -0.02)" />
  <path className="cls-22" d="M3.61,20.59l.11.24L3.09,23a3.07,3.07,0,0,0-.14.9c-.06.07-.12.07-.17,0A2.69,2.69,0,0,1,3,22.61C3.19,21.93,3.41,21.26,3.61,20.59Z" transform="translate(-0.11 -0.02)" />
  <path className="cls-23" d="M11,11.56c0-.09,0-.19-.12-.25a4.58,4.58,0,0,1,2-1.64A9.25,9.25,0,0,0,11,11.56Z" transform="translate(-0.11 -0.02)" />
  <path className="cls-24" d="M7.8,18.65c.12.09.07.23.11.35A21.58,21.58,0,0,0,8,22.22l-.11.14A11.27,11.27,0,0,1,7.8,18.65Z" transform="translate(-0.11 -0.02)" />
  <path className="cls-25" d="M18.71,54.52l.14-.84c.08-.65,0-1.31,0-2,0-.15-.13-.37.14-.45a8.44,8.44,0,0,1-.21,3.5C18.61,54.77,18.67,54.64,18.71,54.52Z" transform="translate(-0.11 -0.02)" />
  <path className="cls-26" d="M16.54,23.78c-.08,0-.18,0-.22.11a5.34,5.34,0,0,1-2-1.26Z" transform="translate(-0.11 -0.02)" />
  <path className="cls-27" d="M18.71,54.52a.3.3,0,0,0,.11.25,3.66,3.66,0,0,1-1.4,1.88c-.1,0-.12,0-.1-.11A4.83,4.83,0,0,0,18.71,54.52Z" transform="translate(-0.11 -0.02)" />
  <path className="cls-28" d="M3.61,25.55A11.43,11.43,0,0,0,5,27.15,3.37,3.37,0,0,1,3.5,25.68C3.45,25.56,3.51,25.54,3.61,25.55Z" transform="translate(-0.11 -0.02)" />
  <path className="cls-29" d="M33.29,33.11c0-.11-.07-.23-.23-.13.26-.71.17-1.51.49-2.22A18.56,18.56,0,0,1,33.29,33.11Z" transform="translate(-0.11 -0.02)" />
  <path className="cls-30" d="M18.08,30.68l-.23.1a8.14,8.14,0,0,1-2-.4l.14-.11Z" transform="translate(-0.11 -0.02)" />
  <path className="cls-31" d="M3.61,25.55l-.11.13a2.9,2.9,0,0,1-.72-1.79H3C2.87,24.56,3.36,25,3.61,25.55Z" transform="translate(-0.11 -0.02)" />
  <path className="cls-32" d="M19.28,6.73c.16.18.38,0,.55.1L18,7.18c-.11,0-.15,0-.13-.13A6.43,6.43,0,0,1,19.28,6.73Z" transform="translate(-0.11 -0.02)" />
  <path className="cls-27" d="M19,51.27a4.63,4.63,0,0,0-.09,1.39c0,.34.1.69-.09,1,0-.82,0-1.64,0-2.46,0-.09,0-.25.15-.19S19,51.18,19,51.27Z" transform="translate(-0.11 -0.02)" />
  <path className="cls-33" d="M12.17,33.74,12,34l-.36-1.67.13,0Z" transform="translate(-0.11 -0.02)" />
  <path className="cls-34" d="M42,21c-.13.13,0,.31-.11.45l-.22-1.53A2.13,2.13,0,0,1,42,21Z" transform="translate(-0.11 -0.02)" />
  <path className="cls-35" d="M34.47,10.76l-.13.14L33.57,10A1.34,1.34,0,0,1,34.47,10.76Z" transform="translate(-0.11 -0.02)" />
  <path className="cls-36" d="M17.85,7.05l.13.13-1.15.4A2,2,0,0,1,17.85,7.05Z" transform="translate(-0.11 -0.02)" />
  <path className="cls-37" d="M37,28.17l-.12-.12a2.24,2.24,0,0,1,.75-.62A2.1,2.1,0,0,1,37,28.17Z" transform="translate(-0.11 -0.02)" />
  <path className="cls-38" d="M4.94,26.41l-.11.12A1.14,1.14,0,0,1,4.31,26,1.17,1.17,0,0,1,4.94,26.41Z" transform="translate(-0.11 -0.02)" />
  <path className="cls-39" d="M17.32,56.54l.1.11c-.13.23-.37.23-.68.35A1.29,1.29,0,0,1,17.32,56.54Z" transform="translate(-0.11 -0.02)" />
</svg>
