<svg id="undraw_joyride_hnno" xmlns="http://www.w3.org/2000/svg" width="465.125" height="300.001" viewBox="0 0 465.125 300.001">
  <path id="パス_1" data-name="パス 1" d="M935.34,600.645l-45.12-78.174a1.436,1.436,0,0,0-2.493,0l-45.133,78.174a1.436,1.436,0,0,0,1.249,2.176h13.463a1.444,1.444,0,0,1,1.44,1.44v16.7a1.436,1.436,0,0,0,1.432,1.44h17.567a1.44,1.44,0,0,0,1.44-1.44v-8.081a1.436,1.436,0,0,1,1.436-1.436h16.7a1.44,1.44,0,0,1,1.44,1.436v8.063a1.44,1.44,0,0,0,1.44,1.44h17.562a1.453,1.453,0,0,0,1.445-1.44v-16.7a1.44,1.44,0,0,1,1.44-1.44h13.463a1.44,1.44,0,0,0,1.227-2.158ZM872.431,609.3a1.454,1.454,0,0,1-1.023.435h-6.336a1.44,1.44,0,0,1,0-2.881h6.336a1.436,1.436,0,0,1,1.44,1.44A1.453,1.453,0,0,1,872.431,609.3Zm41.456,0a1.431,1.431,0,0,1-1.018.435h-6.331a1.44,1.44,0,0,1,0-2.881h6.331a1.436,1.436,0,0,1,1.018,2.459Z" transform="translate(-504.374 -340.524)" fill="#f2f2f2"/>
  <path id="パス_2" data-name="パス 2" d="M302.511,602.237l-45.129-78.169a1.445,1.445,0,0,0-2.5,0L215.9,591.584a119.324,119.324,0,0,0,16.331,16.844h6.34a1.44,1.44,0,0,1,1.018,2.459,1.414,1.414,0,0,1-1.018.435h-2.68a69.743,69.743,0,0,0,10.443,6.5V614.49a1.445,1.445,0,0,1,1.445-1.44h16.7a1.44,1.44,0,0,1,1.44,1.44v8.059a1.34,1.34,0,0,0,.135.6,1.427,1.427,0,0,0,1.305.836h17.567a1.423,1.423,0,0,0,1.144-.579,1.379,1.379,0,0,0,.287-.87v-16.7a1.44,1.44,0,0,1,1.44-1.44h13.463a1.436,1.436,0,0,0,1.253-2.163Zm-29.833,6.614a1.449,1.449,0,0,1,1.023-.435h6.336a1.44,1.44,0,0,1,0,2.881H273.7a1.436,1.436,0,0,1-1.44-1.44A1.453,1.453,0,0,1,272.678,608.851Zm-28.345-28.928a1.436,1.436,0,0,1-1.44-1.44v-10.94a1.436,1.436,0,0,1,1.44-1.44h23.607a1.44,1.44,0,0,1,1.44,1.44v10.94a1.44,1.44,0,0,1-1.44,1.44Z" transform="translate(-150.498 -341.429)" fill="#f2f2f2"/>
  <path id="パス_4" data-name="パス 4" d="M178.433,318.056a32.387,32.387,0,0,0,2.511-3.69l-17.7-2.907,19.146.144a32.275,32.275,0,0,0,.622-25.556l-25.673,13.315,23.676-17.406a32.257,32.257,0,1,0-53.275,36.117,32.152,32.152,0,0,0-3.677,5.883l22.949,11.914-24.486-8.22a32.283,32.283,0,0,0,5.222,30.29,32.039,32.039,0,0,0-5.783,11.51,321.341,321.341,0,0,0,15.187,36.478,31.935,31.935,0,0,0,10.008,3.659,11.188,11.188,0,0,0-.635,3.747,10.639,10.639,0,0,0,1.358,5.387,10.444,10.444,0,0,0-1.375,4.6h0a198.39,198.39,0,0,0,13.1,19.581,9.9,9.9,0,0,0-1.062-2.611,11.057,11.057,0,0,0,0-10.774,11.057,11.057,0,0,0,0-10.774,10.639,10.639,0,0,0,1.4-5.387,11.048,11.048,0,0,0-.653-3.8,32.257,32.257,0,0,0,19.146-51.595,32.248,32.248,0,0,0,0-39.885Z" transform="translate(-96.8 -196.025)" fill="#f2f2f2"/>
  <path id="パス_5" data-name="パス 5" d="M1077.513,388.613l-1.305-.213h1.279a55.227,55.227,0,0,0-2.646-14.495l-4.552,2.363,4.282-3.159a55.541,55.541,0,0,0-21.213-27.819,32.375,32.375,0,0,0-12.667,49.715,32.252,32.252,0,0,0-3.677,5.9l22.976,11.966-24.486-8.237a32.409,32.409,0,0,0,5.222,30.356,32.379,32.379,0,0,0,14.316,50.377c1.74-4.13,3.433-8.446,5.017-12.885,1.4-3.916,2.737-7.907,3.995-11.936a366.774,366.774,0,0,0,9.208-35.925c2.785-13.8,4.351-25.865,4.351-33.506C1077.569,390.271,1077.547,389.444,1077.513,388.613Z" transform="translate(-612.488 -240.851)" fill="#f2f2f2"/>
  <ellipse id="楕円形_1" data-name="楕円形 1" cx="231.496" cy="10.879" rx="231.496" ry="10.879" transform="translate(0 278.244)" fill="#3f3d56"/>
  <path id="パス_6" data-name="パス 6" d="M550.022,432.394c-4.325-7.493-22.192-5.287-39.864,4.926a84.922,84.922,0,0,0-8.868,5.879,76.868,76.868,0,0,0-153.379,1.932A82.457,82.457,0,0,0,336.6,437.3c-17.636-10.191-35.508-12.4-39.829-4.9s6.527,21.844,24.2,32.057c11.449,6.61,22.958,9.86,30.83,9.308a76.955,76.955,0,0,0,23.419,34.376c-15.5,2.176-26.9,9.425-26.9,18.05,0,10.33,16.366,18.711,36.552,18.711s36.552-8.381,36.552-18.711V526.1q1.627.07,3.268.074t3.268-.074v.083c0,10.33,16.366,18.711,36.552,18.711s36.552-8.381,36.552-18.711c0-8.625-11.4-15.878-26.9-18.05a76.942,76.942,0,0,0,23.4-34.311c7.7-.2,18.015-3.425,28.284-9.356C543.53,454.239,554.373,439.883,550.022,432.394Z" transform="translate(-195.641 -256.187)" fill="#f9a826"/>
  <path id="パス_7" data-name="パス 7" d="M296.769,508.367c4.325-7.493,22.192-5.287,39.863,4.926a82.352,82.352,0,0,1,11.144,7.676,24.774,24.774,0,0,0,.161-3.786,82.5,82.5,0,0,0-11.314-7.806c-17.662-10.213-35.534-12.419-39.855-4.926a8.241,8.241,0,0,0-.735,5.831A6.963,6.963,0,0,1,296.769,508.367Z" transform="translate(-195.642 -328.244)" opacity="0.1"/>
  <path id="パス_8" data-name="パス 8" d="M816.616,508.367c-4.325-7.493-22.192-5.287-39.868,4.926a52.867,52.867,0,0,0-8.964,5.935,23.694,23.694,0,0,1-.161-3.786,52.962,52.962,0,0,1,9.138-6.066c17.693-10.213,35.543-12.419,39.868-4.926a8.241,8.241,0,0,1,.735,5.831,6.966,6.966,0,0,0-.748-1.915Z" transform="translate(-462.14 -328.244)" opacity="0.1"/>
  <ellipse id="楕円形_2" data-name="楕円形 2" cx="7.972" cy="10.439" rx="7.972" ry="10.439" transform="translate(200.475 167.77)" fill="#444053"/>
  <ellipse id="楕円形_3" data-name="楕円形 3" cx="7.972" cy="10.439" rx="7.972" ry="10.439" transform="translate(241.661 167.77)" fill="#444053"/>
  <path id="パス_9" data-name="パス 9" d="M576.453,580.456c0,14.986-25.034,40.233-50.294,40.233s-49.35-25.817-49.35-40.79,23.58-1.305,48.819-1.305S576.453,565.465,576.453,580.456Z" transform="translate(-297.875 -369.411)" fill="#3f3d56"/>
  <path id="パス_10" data-name="パス 10" d="M491.946,596.16s45.407,10.108,83.548.287c0,0,4.669,0,1.479,5.4a8.62,8.62,0,0,1-3.481,3.272c-7.354,3.755-34.572,14.86-78.1.7a8.564,8.564,0,0,1-5.674-5.809C489.226,598.175,489.448,596.417,491.946,596.16Z" transform="translate(-305.047 -382.557)" fill="#f6f8fb"/>
  <path id="パス_11" data-name="パス 11" d="M491.627,382.381a76.863,76.863,0,0,1,76.724,72.3q.218-2.866.218-5.8a76.867,76.867,0,1,0-153.734,0c0,1.536.054,3.046.141,4.573a76.872,76.872,0,0,1,76.651-71.081Z" transform="translate(-262.868 -255.95)" opacity="0.1"/>
  <path id="パス_12" data-name="パス 12" d="M585.663,154.614a9.852,9.852,0,1,1-19.7,0v-.474a9.852,9.852,0,0,1,19.677,0A3.461,3.461,0,0,1,585.663,154.614Z" transform="translate(-348.232 -127.601)" fill="#3f3d56"/>
  <path id="パス_13" data-name="パス 13" d="M585.663,162.191a9.852,9.852,0,1,1-19.7,0v-.474a15.552,15.552,0,0,1,19.677,0A3.461,3.461,0,0,1,585.663,162.191Z" transform="translate(-348.232 -135.177)" opacity="0.1"/>
  <circle id="楕円形_4" data-name="楕円形 4" cx="15.556" cy="15.556" r="15.556" transform="translate(212.024 23.902)" fill="#3f3d56"/>
  <path id="パス_14" data-name="パス 14" d="M563.609,149.571a9.856,9.856,0,0,1,8.546-9.765,9.852,9.852,0,1,0,0,19.529A9.856,9.856,0,0,1,563.609,149.571Z" transform="translate(-345.428 -124.733)" fill="#3f3d56"/>
  <path id="パス_15" data-name="パス 15" d="M541.718,193.762a9.852,9.852,0,0,1-1.658-12.872,9.852,9.852,0,1,0,13.833,13.972,9.455,9.455,0,0,0,.8-1.04A9.847,9.847,0,0,1,541.718,193.762Z" transform="translate(-331.688 -147.989)" fill="#3f3d56"/>
  <path id="パス_16" data-name="パス 16" d="M565.487,233.573a8.516,8.516,0,0,0-2.3.788c-1.305.9-1.249,2.811-.87,4.351.87,3.481,3.046,6.836,6.34,8.268a15.4,15.4,0,0,0,6.388.927c2.363-.026,5.022-.326,6.484-2.176a8.542,8.542,0,0,0,1.327-3.246,25.862,25.862,0,0,0,1.188-8.629c-1.432.126-3.046.209-4.143-.692s-1.384-2.611-1.871-4.042a1.018,1.018,0,0,0-.365-.574,1.114,1.114,0,0,0-.653-.1,25.776,25.776,0,0,1-4.478-.222c-.927-.122-3.207-1.088-3.916-.274-.509.6-.187,2.393-.574,3.224a4.508,4.508,0,0,1-2.554,2.4Z" transform="translate(-346.04 -174.389)" fill="#ffc1c7"/>
  <path id="パス_17" data-name="パス 17" d="M565.487,233.573a8.516,8.516,0,0,0-2.3.788c-1.305.9-1.249,2.811-.87,4.351.87,3.481,3.046,6.836,6.34,8.268a15.4,15.4,0,0,0,6.388.927c2.363-.026,5.022-.326,6.484-2.176a8.542,8.542,0,0,0,1.327-3.246,25.862,25.862,0,0,0,1.188-8.629c-1.432.126-3.046.209-4.143-.692s-1.384-2.611-1.871-4.042a1.018,1.018,0,0,0-.365-.574,1.114,1.114,0,0,0-.653-.1,25.776,25.776,0,0,1-4.478-.222c-.927-.122-3.207-1.088-3.916-.274-.509.6-.187,2.393-.574,3.224a4.508,4.508,0,0,1-2.554,2.4Z" transform="translate(-346.04 -174.389)" opacity="0.05"/>
  <path id="パス_18" data-name="パス 18" d="M367.058,472.521c-3.481.1-7.036-.044-10.443.722a2.676,2.676,0,0,0-1.688.87,2.439,2.439,0,0,0,.178,2.48,7.706,7.706,0,0,0,4.4,3.66c2.071.661,4.3.409,6.471.479a21.644,21.644,0,0,1,8.538,2.054,3.451,3.451,0,0,0,1.919.509c.962-.148,1.562-1.11,1.919-2.015a24.579,24.579,0,0,0,.962-3.338c.5-2.145.574-6.384-2.372-6.962-1.349-.261-2.937.67-4.234.94a31.512,31.512,0,0,1-5.652.6Z" transform="translate(-228.874 -311.823)" fill="#444053"/>
  <path id="パス_19" data-name="パス 19" d="M783.554,445.764a4.012,4.012,0,0,0,2.032-1.558c1.305-1.9,1.305-4.173,2-6.257.87-2.711,2.8-4.948,4.008-7.528a15.566,15.566,0,0,0,1.453-7.4,1.305,1.305,0,0,0-1.527-1.218,7.368,7.368,0,0,0-4.173,2.863c-1.345,1.741-2.224,3.812-3.6,5.531a55.256,55.256,0,0,1-4.956,4.678c-2.058,1.984-3.673,4.143-1.836,6.719C778.441,443.71,780.5,446.765,783.554,445.764Z" transform="translate(-466.956 -284.06)" fill="#444053"/>
  <path id="パス_20" data-name="パス 20" d="M466.133,343.578A139.808,139.808,0,0,1,426.1,378.9c-4.739,2.781-9.682,5.3-13.894,8.833a73.411,73.411,0,0,0-8.6,9.068,2.176,2.176,0,0,0-.609,1.114,2.137,2.137,0,0,0,.161.9c.87,2.567,1.88,5.352,4.2,6.753,6.022-8.7,17.989-10.953,27.166-16.218a121.457,121.457,0,0,0,12.084-8.424q8.529-6.384,17.436-12.232c3.938-2.585,7.994-5.126,12.51-6.471,9.573-2.863,20.017,0,28.859,4.7s16.627,11.122,25.291,16.122c11.775,6.788,24.912,10.792,37.918,14.738.466-3.124.748-6.188,1.41-9.277a38.871,38.871,0,0,1-9.342-3,55.4,55.4,0,0,1-9.821-4.887c-2.006-1.358-3.829-2.976-5.813-4.351-4.325-3.046-9.338-4.961-13.72-7.915-5.709-3.847-10.126-9.29-15.348-13.777-2.276-1.954-4.7-3.725-7.119-5.492a36.373,36.373,0,0,0-7.941-4.817c-3.429-1.353-7.171-1.632-10.848-1.893C481.859,341.763,473.927,340.954,466.133,343.578Z" transform="translate(-256.181 -238.856)" fill="#575a89"/>
  <circle id="楕円形_5" data-name="楕円形 5" cx="10.879" cy="10.879" r="10.879" transform="translate(216.484 36.086)" fill="#ffc1c7"/>
  <path id="パス_21" data-name="パス 21" d="M559.839,250.205a13.054,13.054,0,0,1-5.492-2A8,8,0,0,1,551,243.53c-.352-1.536-.157-3.194-.775-4.639a41.531,41.531,0,0,1-6.092,2.472,9.83,9.83,0,0,0-3.368,1.488c-2.058,1.675-2.176,4.721-2.119,7.371a4.9,4.9,0,0,0,.2,1.553,3.917,3.917,0,0,0,.849,1.279c2.237,2.393,5.713,3.385,7.833,5.9a8.394,8.394,0,0,0-2.05,4.421,15.636,15.636,0,0,1-.278,1.967,12.148,12.148,0,0,1-.64,1.562c-1.375,3.133-1.327,6.675-1.536,10.087s-.8,7.045-3.107,9.573a5.146,5.146,0,0,0,3.529,1.432c1.353.126,2.754-.052,4.134,0,3.638.1,7.071,1.593,10.578,2.563s7.489,1.366,10.591-.535c1.088-.666,2.01-1.584,3.1-2.241a15.277,15.277,0,0,1,4.351-1.54l.544-18.172a30.892,30.892,0,0,1,.274-3.807c.788-4.969,3.96-9.177,7.032-13.159a12.04,12.04,0,0,0-5.522-8.964,23.654,23.654,0,0,0-4.351-2.019l-3.577-1.375a1.993,1.993,0,0,0-1.018-.191c-.775.139-1.07,1.084-1.114,1.867-.07,1.236.113,2.476.07,3.712a5.025,5.025,0,0,1-1.227,3.416,5.9,5.9,0,0,1-2.176,1.236C563.307,249.479,561.766,250.493,559.839,250.205Z" transform="translate(-332.798 -180.556)" fill="#ff6584"/>
  <path id="パス_22" data-name="パス 22" d="M544.93,351.755a31.941,31.941,0,0,1-.122,7.267,10.852,10.852,0,0,1-3.229,6.371c-1.406,1.24-3.381,2.176-3.729,4.034a2.176,2.176,0,0,0,.1,1.218,2.315,2.315,0,0,0,2.506,1.171,5.845,5.845,0,0,0,2.611-1.366,57.67,57.67,0,0,0,4.325-3.916,10.325,10.325,0,0,0,2.981-4.038,9.97,9.97,0,0,0,.352-2.358c.283-4.351.357-8.7.435-13.054.052-3.168.087-6.436-1.079-9.382.174.435-4.064.849-4.386.87-1.828.161-1.48.914-1.375,2.637Q544.621,346.5,544.93,351.755Z" transform="translate(-332.327 -236.564)" fill="#ffc1c7"/>
  <path id="パス_23" data-name="パス 23" d="M618.891,351.755a31.941,31.941,0,0,0,.122,7.267,10.852,10.852,0,0,0,3.229,6.371c1.406,1.24,3.381,2.176,3.729,4.034a2.175,2.175,0,0,1-.1,1.218,2.315,2.315,0,0,1-2.506,1.171,5.845,5.845,0,0,1-2.611-1.366,57.67,57.67,0,0,1-4.325-3.916,10.324,10.324,0,0,1-2.981-4.038,9.967,9.967,0,0,1-.353-2.358c-.283-4.351-.357-8.7-.435-13.054-.052-3.168-.087-6.436,1.079-9.382-.174.435,4.064.849,4.386.87,1.828.161,1.479.914,1.375,2.637Q619.218,346.5,618.891,351.755Z" transform="translate(-374.602 -236.564)" fill="#ffc1c7"/>
  <path id="パス_24" data-name="パス 24" d="M540.482,261.7c-1.536,4.534-.914,9.573.657,14.086a7.342,7.342,0,0,1,.653,3.429,10.78,10.78,0,0,1-.54,1.741,8.241,8.241,0,0,0-.235,4.225,2.646,2.646,0,0,0,.483,1.166,5.414,5.414,0,0,1,.435.5c.6.931-.574,2.084-.435,3.185.1.914,1.031,1.453,1.68,2.11,1.832,1.858,1.479,4.882,1,7.45,2.224-.2,4.143-2.015,6.37-1.867a3.812,3.812,0,0,1,3.281,2.528c-.083-2.154.683-3.99.87-6.14.248-2.8-1.562-5.3-2.437-7.967-1.275-3.882-.557-8.1-.87-12.184a40.717,40.717,0,0,0-.661-4.521c-.4-2.045-.975-4.282-2.707-5.444C545.795,262.518,542.435,263.571,540.482,261.7Z" transform="translate(-333.34 -193.635)" opacity="0.1"/>
  <path id="パス_25" data-name="パス 25" d="M539.482,259.7c-1.536,4.534-.914,9.573.657,14.086a7.341,7.341,0,0,1,.653,3.429,10.786,10.786,0,0,1-.54,1.741,8.241,8.241,0,0,0-.235,4.225,2.645,2.645,0,0,0,.483,1.166,5.413,5.413,0,0,1,.435.5c.6.931-.574,2.084-.435,3.185.1.914,1.031,1.453,1.68,2.11,1.832,1.858,1.48,4.882,1,7.45,2.224-.2,4.143-2.015,6.37-1.867a3.812,3.812,0,0,1,3.281,2.528c-.083-2.154.683-3.99.87-6.14.248-2.8-1.562-5.3-2.437-7.967-1.275-3.882-.557-8.1-.87-12.184a40.718,40.718,0,0,0-.661-4.521c-.4-2.045-.975-4.282-2.707-5.444C544.795,260.518,541.435,261.571,539.482,259.7Z" transform="translate(-332.775 -192.505)" fill="#ff6584"/>
  <path id="パス_26" data-name="パス 26" d="M621.09,261.7c1.536,4.534.914,9.573-.657,14.086a7.341,7.341,0,0,0-.653,3.429,10.786,10.786,0,0,0,.54,1.741,8.243,8.243,0,0,1,.235,4.225,2.647,2.647,0,0,1-.483,1.166,5.423,5.423,0,0,0-.435.5c-.6.931.574,2.084.435,3.185-.1.914-1.031,1.453-1.68,2.11-1.832,1.858-1.479,4.882-1,7.45-2.224-.2-4.143-2.015-6.371-1.867a3.812,3.812,0,0,0-3.281,2.528c.083-2.154-.683-3.99-.87-6.14-.248-2.8,1.562-5.3,2.437-7.967,1.275-3.882.557-8.1.87-12.184a40.7,40.7,0,0,1,.653-4.5c.4-2.045.975-4.282,2.707-5.444C615.777,262.518,619.137,263.571,621.09,261.7Z" transform="translate(-371.327 -193.635)" opacity="0.1"/>
  <path id="パス_27" data-name="パス 27" d="M622.09,259.7c1.536,4.534.914,9.573-.657,14.086a7.342,7.342,0,0,0-.653,3.429,10.786,10.786,0,0,0,.54,1.741,8.242,8.242,0,0,1,.235,4.225,2.645,2.645,0,0,1-.483,1.166,5.43,5.43,0,0,0-.435.5c-.6.931.574,2.084.435,3.185-.1.914-1.031,1.453-1.68,2.11-1.832,1.858-1.479,4.882-1,7.45-2.224-.2-4.143-2.015-6.371-1.867a3.812,3.812,0,0,0-3.281,2.528c.083-2.154-.683-3.99-.87-6.14-.248-2.8,1.562-5.3,2.437-7.967,1.275-3.882.557-8.1.87-12.184a40.7,40.7,0,0,1,.653-4.5c.4-2.045.975-4.282,2.707-5.444C616.777,260.518,620.137,261.571,622.09,259.7Z" transform="translate(-371.892 -192.505)" fill="#ff6584"/>
  <ellipse id="楕円形_6" data-name="楕円形 6" cx="13.054" cy="8.703" rx="13.054" ry="8.703" transform="translate(214.091 28.036)" fill="#3f3d56"/>
  <path id="パス_28" data-name="パス 28" d="M561.47,287.812a6.092,6.092,0,0,1,5.657-6.092h-.435a6.092,6.092,0,0,0,0,12.184,2.888,2.888,0,0,0,.435-.022A6.092,6.092,0,0,1,561.47,287.812Z" transform="translate(-345.204 -204.943)" opacity="0.05"/>
  <ellipse id="楕円形_7" data-name="楕円形 7" cx="4.787" cy="6.092" rx="4.787" ry="6.092" transform="translate(216.266 76.772)" fill="#ff6584"/>
  <path id="パス_29" data-name="パス 29" d="M612.257,287.812a6.092,6.092,0,0,0-5.657-6.092h.435a6.092,6.092,0,1,1,0,12.184,2.945,2.945,0,0,1-.435-.022A6.092,6.092,0,0,0,612.257,287.812Z" transform="translate(-371.187 -204.943)" opacity="0.05"/>
  <ellipse id="楕円形_8" data-name="楕円形 8" cx="4.787" cy="6.092" rx="4.787" ry="6.092" transform="translate(231.496 76.772)" fill="#ff6584"/>
  <path id="パス_30" data-name="パス 30" d="M570.654,196.988c-6.988,0-12.7-3.664-13.054-8.268v.435c0,4.787,5.848,8.7,13.054,8.7s13.054-3.916,13.054-8.7v-.435C583.356,193.324,577.647,196.988,570.654,196.988Z" transform="translate(-343.509 -152.412)" opacity="0.1"/>
  <path id="パス_31" data-name="パス 31" d="M345.117,120.131l-6.753,4.286,4.1-7.458a6.679,6.679,0,0,0-4.082-1.458h-.109a7.871,7.871,0,0,1-1.4-.1l-2.289,1.449.979-1.784a8.146,8.146,0,0,1-4-3.046l-4.095,2.611,2.6-4.713a11.992,11.992,0,0,0-9.177-4.639c-4.26,0-8.055,2.537-10.5,6.484a7.833,7.833,0,0,1-6.962,3.742H303.2c-4.7,0-8.516,5.335-8.516,11.91s3.812,11.91,8.516,11.91a6.4,6.4,0,0,0,2.963-.74,12.292,12.292,0,0,1,10.309-.2,10.752,10.752,0,0,0,8.764,0,12.3,12.3,0,0,1,10.213.2,6.405,6.405,0,0,0,2.937.727c4.7,0,8.516-5.331,8.516-11.91a15.13,15.13,0,0,0-1.78-7.263Z" transform="translate(-194.997 -105.28)" fill="#f2f2f2"/>
  <path id="パス_32" data-name="パス 32" d="M332.39,157.713a12.576,12.576,0,0,0-7.3.8,10.744,10.744,0,0,1-8.759,0,12.293,12.293,0,0,0-10.309.2,6.353,6.353,0,0,1-2.963.744c-4.182,0-7.654-4.208-8.381-9.76a8.02,8.02,0,0,0,2.089-2.254c2.45-3.947,6.244-6.479,10.5-6.479s8.011,2.5,10.443,6.41a8.059,8.059,0,0,0,6.941,3.812h.109C328.108,151.16,330.988,153.827,332.39,157.713Z" transform="translate(-194.997 -125.434)" opacity="0.03"/>
  <path id="パス_33" data-name="パス 33" d="M907.91,301.4l-3.368,2.137,2.045-3.716a3.324,3.324,0,0,0-2.041-.727h-.052a4.191,4.191,0,0,1-.7-.052l-1.14.722.487-.87a4.09,4.09,0,0,1-2-1.519l-2.041,1.305,1.305-2.345a5.983,5.983,0,0,0-4.6-2.332,6.232,6.232,0,0,0-5.222,3.233,3.916,3.916,0,0,1-3.481,1.867H887c-2.345,0-4.247,2.659-4.247,5.94s1.9,5.931,4.247,5.931a3.185,3.185,0,0,0,1.479-.37,6.136,6.136,0,0,1,5.143-.1,5.356,5.356,0,0,0,4.351,0,6.127,6.127,0,0,1,5.1.1,3.172,3.172,0,0,0,1.462.361c2.345,0,4.247-2.659,4.247-5.94A7.58,7.58,0,0,0,907.91,301.4Z" transform="translate(-527.172 -211.88)" fill="#f2f2f2"/>
  <path id="パス_34" data-name="パス 34" d="M901.6,320.138a6.284,6.284,0,0,0-3.642.4,5.343,5.343,0,0,1-2.176.461,5.4,5.4,0,0,1-2.176-.47,6.092,6.092,0,0,0-5.139.1,3.2,3.2,0,0,1-1.48.37c-2.084,0-3.821-2.1-4.182-4.869A4.026,4.026,0,0,0,883.854,315a5.847,5.847,0,0,1,10.443-.035,4.021,4.021,0,0,0,3.481,1.9h.057C899.459,316.87,900.895,318.2,901.6,320.138Z" transform="translate(-527.206 -221.917)" opacity="0.03"/>
  <path id="パス_35" data-name="パス 35" d="M779.866,181.506l5.413,3.433-3.285-5.975a5.348,5.348,0,0,1,3.272-1.171h.087a6.441,6.441,0,0,0,1.123-.087l1.832,1.166-.783-1.432a6.527,6.527,0,0,0,3.207-2.463l3.281,2.08-2.071-3.768a9.6,9.6,0,0,1,7.354-3.72c3.412,0,6.453,2.032,8.416,5.2a6.292,6.292,0,0,0,5.561,3h.187c3.768,0,6.819,4.273,6.819,9.543s-3.046,9.543-6.819,9.543a5.139,5.139,0,0,1-2.38-.592,9.839,9.839,0,0,0-8.268-.165,8.611,8.611,0,0,1-7.023,0,9.843,9.843,0,0,0-8.185.161,5.126,5.126,0,0,1-2.35.579c-3.768,0-6.823-4.273-6.823-9.543a12.115,12.115,0,0,1,1.436-5.783Z" transform="translate(-468.246 -141.595)" fill="#f2f2f2"/>
  <path id="パス_36" data-name="パス 36" d="M805.17,211.557a10.056,10.056,0,0,1,5.844.635,8.611,8.611,0,0,0,7.023,0,9.856,9.856,0,0,1,8.268.161,5.117,5.117,0,0,0,2.38.6c3.346,0,6.131-3.372,6.71-7.833a6.5,6.5,0,0,1-1.671-1.806c-1.962-3.163-5-5.191-8.42-5.191s-6.414,2.006-8.377,5.135a6.462,6.462,0,0,1-5.561,3.046h-.087C808.6,206.336,806.293,208.459,805.17,211.557Z" transform="translate(-483.351 -157.721)" opacity="0.03"/>
  <path id="パス_37" data-name="パス 37" d="M286.381,664.172c-1.8-3.325.239-7.4,2.58-10.361s5.2-6.053,5.139-9.83c-.087-5.431-5.853-8.638-10.443-11.514a50.909,50.909,0,0,1-9.382-7.532,13.7,13.7,0,0,1-2.885-3.86,15.737,15.737,0,0,1-.87-6.867q.3-11.618,1.149-23.219" transform="translate(-181.338 -379.636)" fill="none" stroke="#3f3d56" stroke-miterlimit="10" stroke-width="4"/>
  <path id="パス_38" data-name="パス 38" d="M253.068,579.509a8.446,8.446,0,0,1,4.23-6.962l1.893,3.747-.065-4.521a8.355,8.355,0,0,1,2.789-.335,8.468,8.468,0,1,1-8.846,8.072Z" transform="translate(-171.488 -368.586)" fill="#57b894"/>
  <path id="パス_39" data-name="パス 39" d="M286.57,705.669a8.468,8.468,0,1,0-.409-6.819l5.287,4.3-5.818-1.349a8.342,8.342,0,0,0,.94,3.864Z" transform="translate(-189.885 -437.442)" fill="#57b894"/>
  <path id="パス_40" data-name="パス 40" d="M286.913,661.919a8.468,8.468,0,0,0,2.685-16.614l.044,3.481-1.919-3.8H287.7a8.471,8.471,0,1,0-.788,16.924Z" transform="translate(-186.047 -410.132)" fill="#57b894"/>
  <path id="パス_41" data-name="パス 41" d="M239.679,630.5a8.468,8.468,0,1,0-3.747-15.848l1.5,4.1-3.076-2.959a8.433,8.433,0,0,0-2.737,5.848,8.267,8.267,0,0,0,.213,2.332A8.463,8.463,0,0,0,239.679,630.5Z" transform="translate(-159.369 -392.391)" fill="#57b894"/>
  <path id="パス_42" data-name="パス 42" d="M254.457,587.772c1.954.218,3.855.822,5.818.944a6.317,6.317,0,0,0,5.352-1.871,26.789,26.789,0,0,0,1.571-2.754,6.014,6.014,0,0,1,2.132-2.01A8.468,8.468,0,1,1,253.5,587.7,8.621,8.621,0,0,1,254.457,587.772Z" transform="translate(-171.737 -374.603)" opacity="0.1"/>
  <path id="パス_43" data-name="パス 43" d="M239.947,636.79A8.472,8.472,0,0,0,248,624.71a6.239,6.239,0,0,0-1.706,1.706,27.016,27.016,0,0,1-1.675,2.8c-1.305,1.549-3.573,2.058-5.618,1.962s-4.016-.67-6.053-.87c-.278-.026-.566-.044-.87-.052A8.464,8.464,0,0,0,239.947,636.79Z" transform="translate(-159.637 -398.683)" opacity="0.1"/>
  <path id="パス_44" data-name="パス 44" d="M287.4,668.433a8.468,8.468,0,0,0,8.124-11.923,6.818,6.818,0,0,0-1.793,1.741,28.436,28.436,0,0,1-1.836,2.855,7.749,7.749,0,0,1-6,2.1c-2.1-.044-4.116-.561-6.2-.718A8.477,8.477,0,0,0,287.4,668.433Z" transform="translate(-186.536 -416.646)" opacity="0.1"/>
  <path id="パス_45" data-name="パス 45" d="M287.79,712.72a8.468,8.468,0,0,0,15.435-6.91,8.518,8.518,0,0,0-1.858,1.658,33.169,33.169,0,0,1-2.267,3.007c-1.741,1.7-4.525,2.4-7.014,2.467A36.982,36.982,0,0,1,287.79,712.72Z" transform="translate(-191.105 -444.493)" opacity="0.1"/>
  <path id="パス_46" data-name="パス 46" d="M868.254,681.445c-1.305-2.454.178-5.465,1.91-7.654s3.838-4.469,3.79-7.258c-.061-4.012-4.321-6.379-7.719-8.507a37.547,37.547,0,0,1-6.936-5.578,10.248,10.248,0,0,1-2.132-2.855,11.632,11.632,0,0,1-.64-5.069q.222-8.581.87-17.153" transform="translate(-512.35 -400.186)" fill="none" stroke="#3f3d56" stroke-miterlimit="10" stroke-width="4"/>
  <path id="パス_47" data-name="パス 47" d="M843.64,618.919a6.266,6.266,0,0,1,3.124-5.126l1.4,2.772-.044-3.355a6.349,6.349,0,0,1,2.063-.248,6.257,6.257,0,1,1-6.527,5.957Z" transform="translate(-505.081 -392.044)" fill="#57b894"/>
  <path id="パス_48" data-name="パス 48" d="M868.393,712.166a6.253,6.253,0,1,0-.3-5.035L872,710.313l-4.295-1A6.183,6.183,0,0,0,868.393,712.166Z" transform="translate(-518.677 -442.934)" fill="#57b894"/>
  <path id="パス_49" data-name="パス 49" d="M868.632,679.751a6.257,6.257,0,0,0,6.527-5.957,6.174,6.174,0,0,0-.54-2.846,6.271,6.271,0,0,0-4.016-3.481l.031,2.58-1.414-2.807h0a6.262,6.262,0,0,0-.587,12.51Z" transform="translate(-515.827 -422.703)" fill="#57b894"/>
  <path id="パス_50" data-name="パス 50" d="M833.741,656.584a6.257,6.257,0,1,0-2.763-11.705l1.105,3.046-2.276-2.176a6.214,6.214,0,0,0-2.019,4.317,6.092,6.092,0,0,0,.157,1.741A6.253,6.253,0,0,0,833.741,656.584Z" transform="translate(-496.122 -409.623)" fill="#57b894"/>
  <path id="パス_51" data-name="パス 51" d="M844.688,625.034c1.44.161,2.846.609,4.295.7a4.668,4.668,0,0,0,3.955-1.384,18.72,18.72,0,0,0,1.157-2.036,4.474,4.474,0,0,1,1.575-1.484A6.247,6.247,0,1,1,844,624.981C844.213,624.99,844.435,625.007,844.688,625.034Z" transform="translate(-505.284 -396.492)" opacity="0.1"/>
  <path id="パス_52" data-name="パス 52" d="M833.956,661.24a6.262,6.262,0,0,0,5.953-8.92,4.692,4.692,0,0,0-1.262,1.258,18.66,18.66,0,0,1-1.236,2.067,5.122,5.122,0,0,1-4.151,1.453c-1.51-.07-2.963-.5-4.469-.635-.209-.022-.435-.035-.631-.039A6.253,6.253,0,0,0,833.956,661.24Z" transform="translate(-496.337 -414.279)" opacity="0.1"/>
  <path id="パス_53" data-name="パス 53" d="M869,684.573a6.257,6.257,0,0,0,6.527-5.957,6.174,6.174,0,0,0-.54-2.846,5.038,5.038,0,0,0-1.305,1.271,21.419,21.419,0,0,1-1.358,2.106,5.788,5.788,0,0,1-4.43,1.553c-1.6-.039-3.046-.413-4.578-.531a6.249,6.249,0,0,0,5.683,4.4Z" transform="translate(-516.197 -427.525)" opacity="0.1"/>
  <path id="パス_54" data-name="パス 54" d="M869.28,717.38a6.257,6.257,0,0,0,11.405-5.1,6.206,6.206,0,0,0-1.375,1.223,25.406,25.406,0,0,1-1.675,2.224,7.842,7.842,0,0,1-5.178,1.819,26.49,26.49,0,0,1-3.177-.165Z" transform="translate(-519.564 -448.148)" opacity="0.1"/>
  <path id="パス_55" data-name="パス 55" d="M995.147,671.178c1.8-3.325-.239-7.4-2.58-10.361s-5.222-6.053-5.139-9.83c.087-5.431,5.853-8.638,10.443-11.514a50.912,50.912,0,0,0,9.386-7.532,13.7,13.7,0,0,0,2.885-3.86,15.738,15.738,0,0,0,.87-6.867q-.274-11.636-1.144-23.215" transform="translate(-586.299 -383.596)" fill="none" stroke="#3f3d56" stroke-miterlimit="10" stroke-width="4"/>
  <path id="パス_56" data-name="パス 56" d="M1037.156,586.492a8.459,8.459,0,0,0-4.23-6.962l-1.9,3.751.061-4.539a8.37,8.37,0,0,0-2.789-.335,8.468,8.468,0,1,0,8.855,8.085Z" transform="translate(-604.828 -372.523)" fill="#57b894"/>
  <path id="パス_57" data-name="パス 57" d="M1003.653,712.669a8.468,8.468,0,1,1,.409-6.819l-5.287,4.3,5.818-1.349A8.342,8.342,0,0,1,1003.653,712.669Z" transform="translate(-586.429 -441.396)" fill="#57b894"/>
  <path id="パス_58" data-name="パス 58" d="M1003.289,668.919a8.468,8.468,0,0,1-2.685-16.614l-.043,3.481,1.941-3.8h0a8.471,8.471,0,1,1,.788,16.924Z" transform="translate(-590.246 -414.086)" fill="#57b894"/>
  <path id="パス_59" data-name="パス 59" d="M1050.552,637.5a8.468,8.468,0,1,1,3.746-15.848l-1.5,4.1,3.077-2.959a8.468,8.468,0,0,1-5.326,14.7Z" transform="translate(-616.953 -396.345)" fill="#57b894"/>
  <path id="パス_60" data-name="パス 60" d="M1036.02,594.772c-1.954.218-3.855.822-5.818.944a6.317,6.317,0,0,1-5.352-1.871,26.773,26.773,0,0,1-1.571-2.754,6.015,6.015,0,0,0-2.132-2.01,8.468,8.468,0,1,0,15.831,5.622A9.021,9.021,0,0,0,1036.02,594.772Z" transform="translate(-604.831 -378.558)" opacity="0.1"/>
  <path id="パス_61" data-name="パス 61" d="M1050.542,643.79a8.472,8.472,0,0,1-8.054-12.08,6.242,6.242,0,0,1,1.706,1.706,26.993,26.993,0,0,0,1.675,2.8c1.305,1.549,3.573,2.058,5.618,1.963s4.016-.67,6.053-.87c.279-.026.566-.044.87-.052A8.464,8.464,0,0,1,1050.542,643.79Z" transform="translate(-616.943 -402.637)" opacity="0.1"/>
  <path id="パス_62" data-name="パス 62" d="M1003.3,675.433a8.468,8.468,0,0,1-8.124-11.923,6.82,6.82,0,0,1,1.793,1.741,28.441,28.441,0,0,0,1.836,2.855,7.749,7.749,0,0,0,6,2.1c2.1-.043,4.116-.561,6.2-.718A8.476,8.476,0,0,1,1003.3,675.433Z" transform="translate(-590.26 -420.6)" opacity="0.1"/>
  <path id="パス_63" data-name="パス 63" d="M1003.749,719.72a8.468,8.468,0,0,1-15.413-6.91,8.515,8.515,0,0,1,1.858,1.658,33.135,33.135,0,0,0,2.267,3.007c1.741,1.7,4.526,2.4,7.015,2.467A36.987,36.987,0,0,0,1003.749,719.72Z" transform="translate(-586.525 -448.447)" opacity="0.1"/>
  <path id="パス_64" data-name="パス 64" d="M276.83,748.685s6.679-.209,8.7-1.641,10.282-3.146,10.783-.87,10.043,11.44,2.5,11.5-17.532-1.175-19.542-2.4S276.83,748.685,276.83,748.685Z" transform="translate(-184.915 -466.668)" fill="#656380"/>
  <path id="パス_65" data-name="パス 65" d="M298.94,761.58c-7.545.061-17.532-1.175-19.542-2.4-1.532-.931-2.141-4.277-2.345-5.822h-.222s.435,5.387,2.432,6.614,12,2.459,19.542,2.4c2.176,0,2.929-.792,2.889-1.936C301.389,761.136,300.563,761.567,298.94,761.58Z" transform="translate(-184.915 -471.352)" opacity="0.2"/>
  <path id="パス_66" data-name="パス 66" d="M865,748.744s3.916-.117,5.078-.957,6-1.836,6.292-.492,5.861,6.675,1.458,6.71-10.235-.683-11.409-1.4S865,748.744,865,748.744Z" transform="translate(-517.146 -467.554)" fill="#656380"/>
  <path id="パス_67" data-name="パス 67" d="M877.889,756.27c-4.4.035-10.234-.687-11.409-1.4-.87-.544-1.249-2.5-1.366-3.4H865s.248,3.146,1.419,3.86,7.006,1.44,11.409,1.4c1.271,0,1.71-.461,1.684-1.131C879.321,756.009,878.833,756.261,877.889,756.27Z" transform="translate(-517.146 -470.285)" opacity="0.2"/>
  <path id="パス_68" data-name="パス 68" d="M975.83,752.685s6.679-.209,8.7-1.641,10.282-3.146,10.783-.87,10.043,11.44,2.5,11.5-17.532-1.175-19.542-2.4S975.83,752.685,975.83,752.685Z" transform="translate(-579.749 -468.927)" fill="#656380"/>
  <path id="パス_69" data-name="パス 69" d="M997.94,765.58c-7.545.061-17.532-1.175-19.542-2.4-1.532-.931-2.141-4.277-2.345-5.822h-.222s.435,5.387,2.432,6.614,12,2.459,19.542,2.4c2.176,0,2.928-.792,2.889-1.936C1000.39,765.136,999.563,765.567,997.94,765.58Z" transform="translate(-579.749 -473.612)" opacity="0.2"/>
</svg>
